<svg xmlns="http://www.w3.org/2000/svg" viewBox="0 0 202 202"><defs><style>.cls-1{fill:#fff;}.cls-2{fill:#2969b1;}.cls-3{fill:#0e2984;}.cls-4{fill:#0f2884;}</style></defs><g id="Layer_2" data-name="Layer 2"><g id="Favicon"><rect class="cls-1" width="202" height="202" rx="16"/><g id="Favicon-2" data-name="Favicon"><path class="cls-1" d="M64.39,45.06c11.24-2.71,23.31,4.7,35.5,4.06,17.5-.92,21.31-17.66,34.63-14.66,16.24,5.81,19.19,19.42,18.9,30.73-.25,9.23-3.13,10.94-5.7,22.79-1.07,5-1.47,11.46-2.25,24.38-1.57,21.72.38,28.44-7.95,44.17-3.84,5.81-10.33,13.18-13.07,11.83-3.07.68,6.28-40.85-4.24-51.58-4.67-8.72-18-11.88-26-4.06-2.73,2.6-3.59,6-5.3,12.71-2.39,9.41-3.7,14.56-2.47,21.2.87,4.75,2.73,8.61,1.41,14.49-.43,1.93-.88,3.81-2.3,4.41-3.3,1.42-10-5-13.6-11.66-6.52-16.13-1.52-23.43-9.54-46.63-5.23-15.6-10.6-16.7-13.78-31.8C45,59.12,51.13,49,64.39,45.06Z"/><path class="cls-2" d="M87.62,47.88c-2.14-2.59-18.38-7.7-23-6.58-15.2,2.4-22.6,14.33-21.55,29-.48,13.38,8.64,22.36,14.37,35.56,7.75,21.35,2.27,47,25.67,62.07,14.38,8.89,4.21-27,8.6-41.1,1.91-12.34,16-22.71,24.85-8.95,6.07,10.49,5.07,26.58,4.12,43-.37,9.26-.18,11.38,1.18,12.13,5.53,1.42,13.39-8.37,15.78-12.25,10.72-16.59,10.14-31.54,9.79-47.46-.34-3-.94-23.47-1.18-22.92-3.29,9.24-1.12,43.68-8,55.55-3.37,8.15-7.07,12.93-10.25,13.42-3.29-1.82,3.91-32.07-5.42-44.16-4-8.58-15.12-11.79-23.92-8.54-16,7.45-16.26,22.36-15.92,32.23,0,3.09,3.4,20.2.51,23.18-1.8.69-5.33-4.17-7.07-7.07-6.29-9.05-5.59-31.53-7.3-43.57C63.81,95.15,50.12,79.19,53.52,63.19,59.09,44,69.85,48.18,87.62,47.88Z"/><path class="cls-3" d="M129.29,29.63C115.86,32.3,106.12,43.08,92,45.5c-7.55,1.42-12-.42-12.41.84,4.58,8.93,27.9,8,34.58,4.63,4.47-2.14,13.12-8.16,16.67-9.28,5.34-1.28,10.49,2.78,11.69,3.72,9.42,8,8.59,20.88,5.16,32.24-1.59,5.79-4.64,15.68-4.64,21.11-.1,6,1.56,12,2.57,11.92,1.45-.07,1.21-12.58,4.39-21.42,3.43-9.53,2-5.53,4.27-12,1.7-5.08,4.45-14.24,4.44-18.53C160.86,46.16,149.36,24.46,129.29,29.63Z"/><path class="cls-4" d="M61.58,77.54a22.34,22.34,0,0,1,3.26-6c2-2.66,4.56-4.84,5.54-4.75s1.22,1.56,1.32,1.92C72.08,70,68,70.09,68,71.9c0,1.14.91,2.15,3.11,4.19A38.76,38.76,0,0,0,78,81.3a57.36,57.36,0,0,0,26.69,9.18,95.94,95.94,0,0,0,13.23-.23c.91-.06,3.54-.51,6.66-1.12A41.37,41.37,0,0,0,131.69,87c1.63-.69,4-2.13,4.8-2,.39.09,1.09.84,1.39,3,.55,4-.78,10.17-1.2,10.21s-.91-2.77-.84-5.77c0-1.12.55-3.63-.52-3.82-.89-.17-6.16,2-6.87,2.15a4.92,4.92,0,0,0-3.11,2c-1.82,2.65-7.07,8.12-5.58,14.17.29,1.17,3.3-1.17,3.58-.72.47.77-1.79,2.67-4.86,3.89-13.54,5.36-40.69-1.36-49.76-22.23a31.74,31.74,0,0,1-2-9.22c-.06-2.59,0-4.66,0-5.91,0-1-3.28,3.15-3.39,3.26C62.64,76.88,61.71,77.63,61.58,77.54Z"/><path class="cls-1" d="M69.86,84.91c.41-.11,1.16-.34,1.75-.53A.46.46,0,0,0,72,84c0-1.21-.2-4.65,0-4.71.75-.26,9.24,7.53,21.91,11.6,11.54,3.71,29.39.75,29.62,1.12s-2.74,2.36-4.77,6.66a19.87,19.87,0,0,0-1.24,7.42c0,1.26-.21,2.42-1.38,2.82-5.92,2-19.23-.42-20.38-.69A44.2,44.2,0,0,1,75.91,96C71.46,91,69.09,85.11,69.86,84.91Z"/></g></g></g></svg>