<svg xmlns="http://www.w3.org/2000/svg" viewBox="0 0 256 256"><defs><style>.cls-1{fill:#fff;}.cls-2{fill:#2969b1;}.cls-3{fill:#0e2984;}.cls-4{fill:#0f2884;}</style></defs><g id="Layer_2" data-name="Layer 2"><g id="Artboard"><g id="Favicon"><rect class="cls-1" width="256" height="256" rx="64"/><path class="cls-1" d="M77.55,50.92c15.49-3.73,32.12,6.48,48.92,5.6,24.11-1.27,29.36-24.33,47.71-20.21,22.39,8,26.45,26.76,26,42.35-.34,12.71-4.32,15.07-7.85,31.4-1.49,6.88-2,15.79-3.11,33.59-2.16,29.93.52,39.18-11,60.86-5.3,8-14.23,18.16-18,16.3-4.23.94,8.65-56.28-5.85-71.07-6.43-12-24.85-16.36-35.77-5.6-3.77,3.6-5,8.24-7.31,17.53-3.29,13-5.09,20.05-3.4,29.2,1.2,6.54,3.76,11.87,1.94,20-.59,2.66-1.21,5.26-3.16,6.09-4.56,2-13.8-6.87-18.74-16.07-9-22.22-2.1-32.28-13.15-64.25-7.21-21.49-14.6-23-19-43.82C50.78,70.3,59.28,56.28,77.55,50.92Z"/><path class="cls-2" d="M109.56,54.81c-2.94-3.57-25.32-10.61-31.64-9.07-21,3.31-31.15,19.75-29.7,40-.66,18.45,11.91,30.81,19.8,49,10.68,29.41,3.13,64.81,35.37,85.52,19.82,12.24,5.8-37.23,11.85-56.64,2.64-17,22.08-31.28,34.24-12.33,8.36,14.46,7,36.62,5.68,59.23-.52,12.76-.26,15.67,1.62,16.71,7.63,1.95,18.45-11.54,21.74-16.87,14.78-22.87,14-43.46,13.49-65.4-.46-4.18-1.29-32.34-1.63-31.59-4.53,12.74-1.54,60.19-11,76.54-4.63,11.23-9.74,17.83-14.11,18.5-4.54-2.51,5.39-44.18-7.47-60.85-5.46-11.83-20.84-16.24-33-11.76-22,10.27-22.4,30.8-21.94,44.4,0,4.26,4.69,27.83.7,31.94-2.47,1-7.34-5.74-9.73-9.73-8.67-12.47-7.71-43.45-10.06-60-7-22.42-25.87-44.41-21.18-66.45C70.25,49.5,85.07,55.22,109.56,54.81Z"/><path class="cls-3" d="M167,29.66c-18.5,3.68-31.93,18.53-51.34,21.87-10.4,2-16.54-.58-17.1,1.15,6.31,12.31,38.45,11,47.65,6.39,6.16-3,18.07-11.25,23-12.79,7.35-1.77,14.45,3.83,16.1,5.12,13,11,11.84,28.78,7.12,44.43-2.2,8-6.4,21.61-6.39,29.08-.15,8.26,2.14,16.5,3.53,16.43,2-.1,1.68-17.33,6-29.52,4.72-13.12,2.72-7.61,5.88-16.47,2.34-7,6.13-19.62,6.12-25.54C210.48,52.44,194.64,22.54,167,29.66Z"/><path class="cls-4" d="M73.69,95.68c-.14-.09,1.61-4.41,4.48-8.3,2.72-3.67,6.28-6.66,7.64-6.55,1.16.1,1.68,2.15,1.83,2.66.51,1.82-5.18,1.91-5.09,4.41.06,1.58,1.26,3,4.29,5.78a53.17,53.17,0,0,0,9.43,7.17c6.34,4.06,19.43,11.44,36.77,12.66a131.6,131.6,0,0,0,18.24-.33c1.25-.07,4.87-.7,9.16-1.54a56.78,56.78,0,0,0,9.85-3c2.24-1,5.54-2.93,6.61-2.69.53.12,1.5,1.17,1.92,4.2.76,5.53-1.08,14-1.66,14.07s-1.25-3.83-1.16-8c0-1.55.76-5-.71-5.28-1.23-.23-8.49,2.76-9.47,3a6.84,6.84,0,0,0-4.28,2.8c-2.52,3.65-9.74,11.2-7.69,19.54.4,1.61,4.55-1.62,4.93-1,.65,1.06-2.47,3.69-6.69,5.36-18.66,7.38-56.07-1.87-68.56-30.63a43.68,43.68,0,0,1-2.72-12.7c-.08-3.58-.07-6.43,0-8.15.08-1.42-4.52,4.35-4.67,4.5C75.15,94.76,73.87,95.8,73.69,95.68Z"/><path class="cls-1" d="M85.09,105.83c.57-.14,1.6-.47,2.41-.74a.58.58,0,0,0,.47-.52c.06-1.67-.28-6.4-.06-6.48,1-.36,12.73,10.38,30.18,16,15.9,5.11,40.5,1,40.81,1.54.42.7-3.77,3.24-6.57,9.17-1.08,2.29-1.61,6-1.7,10.22,0,1.74-.3,3.34-1.91,3.89-8.16,2.8-26.5-.58-28.07-1-5.75-1.35-18.84-7.29-27.22-16.82C87.3,114.17,84,106.1,85.09,105.83Z"/></g></g></g></svg>