<svg xmlns="http://www.w3.org/2000/svg" viewBox="0 0 116 144.3"><defs><style>.cls-1{fill:#fff;}.cls-2{fill:#2969b1;}.cls-3{fill:#0e2984;}.cls-4{fill:#0f2884;}</style></defs><g id="Layer_2" data-name="Layer 2"><g id="Favicon"><path class="cls-1" d="M21.39,16.21c11.24-2.71,23.31,4.7,35.5,4.06C74.39,19.35,78.2,2.61,91.52,5.61c16.24,5.81,19.19,19.42,18.9,30.74-.25,9.22-3.13,10.93-5.7,22.78-1.07,5-1.47,11.46-2.25,24.38-1.57,21.72.38,28.44-8,44.17-3.84,5.81-10.33,13.18-13.07,11.83-3.07.68,6.28-40.85-4.24-51.58-4.67-8.72-18-11.87-26-4.06-2.73,2.6-3.59,6-5.3,12.71-2.39,9.42-3.7,14.56-2.47,21.2.87,4.75,2.73,8.62,1.41,14.49-.43,1.93-.88,3.81-2.3,4.42-3.3,1.41-10-5-13.6-11.66-6.52-16.14-1.52-23.44-9.54-46.64-5.23-15.6-10.6-16.7-13.78-31.8C2,30.28,8.13,20.1,21.39,16.21Z"/><path class="cls-2" d="M44.62,19c-2.14-2.59-18.38-7.69-23-6.58C6.45,14.85-.95,26.78.1,41.47-.38,54.86,8.74,63.83,14.47,77c7.75,21.34,2.27,47,25.67,62.06,14.38,8.89,4.21-27,8.6-41.1,1.91-12.34,16-22.71,24.85-9,6.07,10.49,5.07,26.58,4.12,43-.37,9.26-.18,11.38,1.18,12.13,5.53,1.42,13.39-8.37,15.78-12.24,10.72-16.6,10.14-31.54,9.79-47.47-.34-3-.94-23.47-1.18-22.92-3.29,9.24-1.12,43.68-8,55.55C91.89,125.23,88.19,130,85,130.5c-3.29-1.82,3.91-32.07-5.42-44.16-4-8.58-15.12-11.79-23.92-8.54-16,7.46-16.26,22.36-15.92,32.23,0,3.09,3.4,20.2.51,23.18-1.8.69-5.33-4.17-7.07-7.07-6.29-9-5.59-31.53-7.3-43.57C20.81,66.31,7.12,50.34,10.52,34.34,16.09,15.18,26.85,19.33,44.62,19Z"/><path class="cls-3" d="M86.29.78C72.86,3.45,63.12,14.23,49,16.65c-7.55,1.42-12-.42-12.41.84,4.58,8.93,27.9,8,34.58,4.64C75.67,20,84.32,14,87.87,12.84c5.34-1.28,10.49,2.78,11.69,3.72,9.42,8,8.59,20.89,5.16,32.24-1.59,5.79-4.64,15.69-4.64,21.11-.1,6,1.56,12,2.57,11.92,1.45-.07,1.21-12.58,4.39-21.42,3.43-9.52,2-5.53,4.27-12,1.7-5.08,4.45-14.24,4.44-18.53C117.86,17.31,106.36-4.39,86.29.78Z"/><path class="cls-4" d="M18.58,48.69a22.34,22.34,0,0,1,3.26-6c2-2.66,4.56-4.84,5.54-4.75s1.22,1.56,1.32,1.93c.38,1.32-3.75,1.39-3.68,3.2,0,1.15.91,2.16,3.11,4.19A38.76,38.76,0,0,0,35,52.45a57.36,57.36,0,0,0,26.69,9.18,95.94,95.94,0,0,0,13.23-.23c.91-.06,3.54-.51,6.66-1.12a41.37,41.37,0,0,0,7.14-2.15c1.63-.69,4-2.13,4.8-2,.39.09,1.09.85,1.39,3,.55,4-.78,10.17-1.2,10.22s-.91-2.78-.84-5.78c0-1.11.55-3.63-.52-3.82-.89-.17-6.16,2-6.87,2.15a4.92,4.92,0,0,0-3.11,2c-1.82,2.65-7.07,8.12-5.58,14.17.29,1.17,3.3-1.17,3.58-.72.47.77-1.79,2.68-4.86,3.89C61.94,86.72,34.79,80,25.72,59.13a31.74,31.74,0,0,1-2-9.21c-.06-2.6-.05-4.67,0-5.92.05-1-3.28,3.15-3.39,3.27C19.64,48,18.71,48.78,18.58,48.69Z"/><path class="cls-1" d="M26.86,56.06c.41-.1,1.16-.34,1.75-.53a.45.45,0,0,0,.34-.38c0-1.21-.2-4.65-.05-4.7.75-.27,9.24,7.52,21.91,11.6,11.54,3.71,29.39.74,29.62,1.11s-2.74,2.36-4.77,6.66a19.87,19.87,0,0,0-1.24,7.42c0,1.26-.21,2.42-1.38,2.82-5.92,2-19.23-.42-20.38-.69a44.2,44.2,0,0,1-19.75-12.2C28.46,62.11,26.09,56.26,26.86,56.06Z"/></g></g></svg>