<svg xmlns="http://www.w3.org/2000/svg" viewBox="0 0 292 138.51"><defs><style>.cls-1{fill:#fff;}.cls-2{fill:#0e2984;}.cls-3{fill:#2969b1;}.cls-4{fill:#0f2884;}</style></defs><g id="Layer_2" data-name="Layer 2"><g id="Logo"><rect class="cls-1" width="292" height="138.51" rx="15.93"/><g id="Clinica_Dentaria" data-name="Clinica Dentaria"><path class="cls-2" d="M30.14,111.69a8.17,8.17,0,0,1,3.16-3.2,9.24,9.24,0,0,1,4.6-1.15A8.79,8.79,0,0,1,43.3,109a8,8,0,0,1,3,4.54H41.56a3.81,3.81,0,0,0-1.5-1.69,4.19,4.19,0,0,0-2.21-.58,4.09,4.09,0,0,0-3.22,1.39,6.16,6.16,0,0,0,0,7.41,4.09,4.09,0,0,0,3.22,1.39,4.19,4.19,0,0,0,2.21-.58,3.81,3.81,0,0,0,1.5-1.69h4.75a8,8,0,0,1-3,4.53,8.84,8.84,0,0,1-5.4,1.65,9.13,9.13,0,0,1-4.6-1.15A8.08,8.08,0,0,1,30.14,121,9.41,9.41,0,0,1,29,116.38,9.55,9.55,0,0,1,30.14,111.69Z"/><path class="cls-2" d="M53.27,121.92h5.65v3.33H49v-17.7h4.32Z"/><path class="cls-2" d="M66.08,104,60,106.54v-3l6.08-2.93Zm-.78,3.56v17.7H61v-17.7Z"/><path class="cls-2" d="M84.27,125.25H80l-7.22-10.92v10.92H68.43v-17.7h4.31l7.22,11v-11h4.31Z"/><path class="cls-2" d="M91.71,107.55v17.7H87.4v-17.7Z"/><path class="cls-2" d="M95.24,111.69a8.26,8.26,0,0,1,3.17-3.2,9.24,9.24,0,0,1,4.6-1.15,8.79,8.79,0,0,1,5.4,1.67,7.94,7.94,0,0,1,3,4.54h-4.74a3.81,3.81,0,0,0-1.5-1.69,4.19,4.19,0,0,0-2.21-.58,4.11,4.11,0,0,0-3.23,1.39,6.2,6.2,0,0,0,0,7.41,4.11,4.11,0,0,0,3.23,1.39,4.19,4.19,0,0,0,2.21-.58,3.81,3.81,0,0,0,1.5-1.69h4.74a7.89,7.89,0,0,1-3,4.53,8.84,8.84,0,0,1-5.4,1.65,9.13,9.13,0,0,1-4.6-1.15A8.17,8.17,0,0,1,95.24,121a9.51,9.51,0,0,1-1.13-4.66A9.65,9.65,0,0,1,95.24,111.69Z"/><path class="cls-2" d="M125.09,122.13h-6.61l-1.06,3.12H112.9l6.41-17.7h5l6.4,17.7h-4.56ZM124,118.8l-2.2-6.49-2.17,6.49Z"/><path class="cls-2" d="M149.53,108.65a7.92,7.92,0,0,1,3.24,3.12,9.88,9.88,0,0,1,0,9.25,7.89,7.89,0,0,1-3.25,3.12,10.33,10.33,0,0,1-4.88,1.11H138v-17.7h6.64A10.4,10.4,0,0,1,149.53,108.65Zm-1.36,11.53a5,5,0,0,0,1.36-3.78,4.72,4.72,0,0,0-5.17-5.17h-2v10.29h2A5.22,5.22,0,0,0,148.17,120.18Z"/><path class="cls-2" d="M160.66,111v3.58h5.77v3.33h-5.77v3.89h6.53v3.45H156.34v-17.7h10.85V111Z"/><path class="cls-2" d="M185.83,125.25h-4.31l-7.22-10.92v10.92H170v-17.7h4.31l7.22,11v-11h4.31Z"/><path class="cls-2" d="M201.7,107.55V111H197v14.25h-4.32V111H188v-3.45Z"/><path class="cls-2" d="M214.89,122.13h-6.61l-1.06,3.12h-4.51l6.41-17.7h5l6.41,17.7H216ZM214.54,104l-6.08,2.55v-3l6.08-2.93Zm-.76,14.81-2.19-6.49-2.17,6.49Z"/><path class="cls-2" d="M231.49,125.25l-3.68-6.68h-1v6.68h-4.31v-17.7h7.24a7.92,7.92,0,0,1,3.57.73,5.08,5.08,0,0,1,2.21,2,5.69,5.69,0,0,1,.73,2.84,5.21,5.21,0,0,1-1,3.15,5.28,5.28,0,0,1-2.94,2l4.09,7Zm-4.72-9.73h2.68a2.49,2.49,0,0,0,1.78-.58,2.22,2.22,0,0,0,.59-1.64,2.14,2.14,0,0,0-.59-1.59,2.45,2.45,0,0,0-1.78-.58h-2.68Z"/><path class="cls-2" d="M243.22,107.55v17.7h-4.31v-17.7Z"/><path class="cls-2" d="M257.37,122.13h-6.61l-1,3.12h-4.52l6.41-17.7h5l6.41,17.7h-4.57Zm-1.11-3.33-2.19-6.49-2.17,6.49Z"/></g><g id="Popular"><path class="cls-3" d="M55.08,76.28a10.65,10.65,0,0,1-4.48,4.24,15.7,15.7,0,0,1-7.5,1.62H37.58V95.27H28.67V58.69H43.1a16.54,16.54,0,0,1,7.4,1.51A10.45,10.45,0,0,1,55,64.37a12.1,12.1,0,0,1,1.51,6.1A11.82,11.82,0,0,1,55.08,76.28Zm-8.85-2.42a5.22,5.22,0,0,0,0-6.78,5.34,5.34,0,0,0-3.81-1.2H37.58v9.17h4.84A5.39,5.39,0,0,0,46.23,73.86Z"/><path class="cls-3" d="M69,93.24a17.93,17.93,0,0,1-6.83-6.7,19.74,19.74,0,0,1,0-19.3A18,18,0,0,1,69,60.57a19.82,19.82,0,0,1,18.91,0,17.59,17.59,0,0,1,6.78,6.67,20,20,0,0,1,0,19.3,17.85,17.85,0,0,1-6.77,6.7,19.86,19.86,0,0,1-18.89,0Zm16.46-8.65a11.06,11.06,0,0,0,2.63-7.71,11,11,0,0,0-2.63-7.74,9,9,0,0,0-7-2.89,9.1,9.1,0,0,0-7.06,2.86,11,11,0,0,0-2.63,7.77,11,11,0,0,0,2.63,7.73,9.95,9.95,0,0,0,14.06,0Z"/><path class="cls-3" d="M128.55,76.28a10.77,10.77,0,0,1-4.48,4.24,15.77,15.77,0,0,1-7.51,1.62H111V95.27h-8.91V58.69h14.43A16.51,16.51,0,0,1,124,60.2a10.34,10.34,0,0,1,4.53,4.17,12.1,12.1,0,0,1,1.51,6.1A11.81,11.81,0,0,1,128.55,76.28Zm-8.86-2.42a5.22,5.22,0,0,0,0-6.78,5.3,5.3,0,0,0-3.8-1.2H111v9.17h4.85A5.34,5.34,0,0,0,119.69,73.86Z"/><path class="cls-3" d="M143.4,58.69V80.58a7.23,7.23,0,0,0,1.61,5,6.1,6.1,0,0,0,4.74,1.77,6.25,6.25,0,0,0,4.79-1.77,7.06,7.06,0,0,0,1.67-5V58.69h8.91V80.52A15.53,15.53,0,0,1,163,88.81a13.3,13.3,0,0,1-5.6,5.1,17.58,17.58,0,0,1-7.84,1.72,17.14,17.14,0,0,1-7.74-1.69,12.58,12.58,0,0,1-5.39-5.11,16.28,16.28,0,0,1-2-8.31V58.69Z"/><path class="cls-3" d="M180.28,88.39H192v6.88H171.37V58.69h8.91Z"/><path class="cls-3" d="M219,88.81H205.34l-2.18,6.46h-9.33l13.23-36.58h10.32l13.23,36.58h-9.43Zm-2.29-6.88-4.53-13.39-4.48,13.39Z"/><path class="cls-3" d="M253.28,95.27l-7.61-13.81h-2.14V95.27h-8.91V58.69h15A16.55,16.55,0,0,1,257,60.2a10.43,10.43,0,0,1,4.56,4.15A11.5,11.5,0,0,1,263,70.21a10.67,10.67,0,0,1-8.13,10.57l8.44,14.49Zm-9.75-20.11h5.53a5.05,5.05,0,0,0,3.67-1.2A4.51,4.51,0,0,0,254,70.57a4.36,4.36,0,0,0-1.22-3.28,5.05,5.05,0,0,0-3.67-1.2h-5.53Z"/></g><g id="Sorriso"><path class="cls-3" d="M36,51.67a12.19,12.19,0,0,1-5.28-4,10.89,10.89,0,0,1-2.09-6.4h9.87A4.75,4.75,0,0,0,40,44.48a4.7,4.7,0,0,0,3.26,1.12,5.09,5.09,0,0,0,3.25-1A3.18,3.18,0,0,0,47.71,42a3.14,3.14,0,0,0-1-2.33,7.9,7.9,0,0,0-2.33-1.52,39,39,0,0,0-3.94-1.35,43,43,0,0,1-6-2.28,11.17,11.17,0,0,1-4-3.36,9.4,9.4,0,0,1-1.68-5.81A10,10,0,0,1,32.63,17q3.84-3,10-3t10.15,3a10.78,10.78,0,0,1,4.12,8.38h-10a3.94,3.94,0,0,0-1.35-2.91,4.82,4.82,0,0,0-3.2-1.05,4,4,0,0,0-2.72.89,3.26,3.26,0,0,0-1,2.58,3.18,3.18,0,0,0,1.74,2.87A28.48,28.48,0,0,0,45.75,30a50.18,50.18,0,0,1,6,2.38,11.55,11.55,0,0,1,4,3.31,8.88,8.88,0,0,1,1.68,5.59,10.89,10.89,0,0,1-1.66,5.91A11.44,11.44,0,0,1,51,51.45,16.41,16.41,0,0,1,43.53,53,19.49,19.49,0,0,1,36,51.67Z"/><g id="Logo-2" data-name="Logo"><path class="cls-1" d="M68.24,18.29c3.06-.73,6.34,1.28,9.67,1.11,4.76-.25,5.8-4.81,9.42-4,4.43,1.58,5.23,5.28,5.15,8.37-.07,2.51-.85,3-1.55,6.2a50.4,50.4,0,0,0-.61,6.64c-.43,5.91.1,7.74-2.17,12-1.05,1.58-2.81,3.58-3.56,3.22-.83.18,1.71-11.13-1.15-14a4.58,4.58,0,0,0-7.07-1.1c-.75.71-1,1.62-1.45,3.46-.65,2.56-1,4-.67,5.77.24,1.29.74,2.35.38,3.95-.11.52-.24,1-.62,1.2-.9.38-2.73-1.36-3.7-3.18-1.78-4.39-.42-6.38-2.6-12.7C66.28,31,64.82,30.68,64,26.57,63,22.12,64.63,19.35,68.24,18.29Z"/><path class="cls-3" d="M74.56,19.06c-.58-.7-5-2.09-6.25-1.79-4.14.65-6.16,3.9-5.87,7.9-.13,3.65,2.35,6.09,3.91,9.69,2.11,5.81.62,12.8,7,16.9,3.92,2.42,1.15-7.36,2.34-11.2.53-3.35,4.37-6.18,6.77-2.43,1.65,2.85,1.38,7.23,1.12,11.7-.1,2.52,0,3.1.32,3.3,1.51.39,3.65-2.28,4.3-3.33,2.92-4.52,2.76-8.59,2.67-12.92-.09-.83-.26-6.39-.32-6.25-.9,2.52-.31,11.9-2.19,15.13-.91,2.22-1.92,3.52-2.79,3.65-.9-.49,1.07-8.73-1.47-12C83,35.05,80,34.18,77.57,35.06c-4.35,2-4.43,6.09-4.33,8.78,0,.84.92,5.5.14,6.31-.49.19-1.46-1.13-1.93-1.92-1.71-2.47-1.52-8.59-2-11.87-1.38-4.43-5.11-8.77-4.18-13.13C66.79,18,69.72,19.14,74.56,19.06Z"/><path class="cls-2" d="M85.91,14.09c-3.66.73-6.31,3.66-10.15,4.32-2.05.39-3.27-.11-3.37.23,1.24,2.43,7.59,2.18,9.41,1.26,1.22-.58,3.57-2.22,4.54-2.52a4,4,0,0,1,3.18,1c2.57,2.17,2.34,5.69,1.41,8.78a27.54,27.54,0,0,0-1.26,5.75c0,1.63.42,3.26.69,3.24s.34-3.42,1.2-5.83c.93-2.59.54-1.51,1.16-3.26a22,22,0,0,0,1.21-5C94.51,18.59,91.38,12.68,85.91,14.09Z"/><path class="cls-4" d="M67.47,27.14a6.22,6.22,0,0,1,.89-1.64c.54-.73,1.24-1.32,1.51-1.3s.33.43.36.53c.1.36-1,.38-1,.87,0,.31.24.59.84,1.14a10.29,10.29,0,0,0,1.87,1.42,15.62,15.62,0,0,0,7.26,2.5,26,26,0,0,0,3.61-.06c.24,0,1-.14,1.81-.31a10.81,10.81,0,0,0,1.94-.58c.45-.19,1.1-.58,1.31-.53s.3.23.38.83a6.21,6.21,0,0,1-.33,2.78,3.24,3.24,0,0,1-.23-1.58c0-.3.15-1-.14-1a14,14,0,0,0-1.87.59,1.37,1.37,0,0,0-.85.55c-.49.72-1.92,2.21-1.51,3.86.07.32.89-.32,1-.2S83.8,35.7,83,36c-3.69,1.46-11.08-.37-13.55-6.05a8.56,8.56,0,0,1-.54-2.51c0-.71,0-1.27,0-1.61s-.89.86-.92.89C67.76,27,67.51,27.16,67.47,27.14Z"/><path class="cls-1" d="M69.73,29.14c.11,0,.31-.09.47-.14a.14.14,0,0,0,.1-.1c0-.33-.06-1.27,0-1.28.21-.08,2.52,2.05,6,3.15,3.14,1,8,.21,8.06.31s-.74.64-1.3,1.81a5.53,5.53,0,0,0-.33,2c0,.35-.06.66-.38.77-1.61.55-5.24-.11-5.55-.19a12,12,0,0,1-5.38-3.32C70.16,30.79,69.52,29.2,69.73,29.14Z"/></g><path class="cls-3" d="M125.17,52.65l-7.92-14.38H115V52.65h-9.28V14.57h15.57A17.09,17.09,0,0,1,129,16.14a10.87,10.87,0,0,1,4.75,4.31,12,12,0,0,1,1.57,6.11,11.33,11.33,0,0,1-2.14,6.78,11.5,11.5,0,0,1-6.32,4.23l8.79,15.08ZM115,31.71h5.75a5.26,5.26,0,0,0,3.82-1.25,4.71,4.71,0,0,0,1.27-3.53,4.55,4.55,0,0,0-1.27-3.41,5.26,5.26,0,0,0-3.82-1.25H115Z"/><path class="cls-3" d="M160.54,52.65l-7.92-14.38h-2.23V52.65h-9.27V14.57h15.57a17.09,17.09,0,0,1,7.67,1.57,10.87,10.87,0,0,1,4.75,4.31,12,12,0,0,1,1.57,6.11,11.33,11.33,0,0,1-2.14,6.78,11.54,11.54,0,0,1-6.32,4.23L171,52.65ZM150.39,31.71h5.75A5.29,5.29,0,0,0,160,30.46a4.71,4.71,0,0,0,1.27-3.53A4.55,4.55,0,0,0,160,23.52a5.29,5.29,0,0,0-3.83-1.25h-5.75Z"/><path class="cls-3" d="M185.76,14.57V52.65h-9.27V14.57Z"/><path class="cls-3" d="M198.78,51.67a12.16,12.16,0,0,1-5.29-4,11,11,0,0,1-2.09-6.4h9.88a4.75,4.75,0,0,0,1.46,3.22A4.68,4.68,0,0,0,206,45.6a5.11,5.11,0,0,0,3.25-1A3.18,3.18,0,0,0,210.44,42a3.11,3.11,0,0,0-.95-2.33,7.77,7.77,0,0,0-2.33-1.52,37.81,37.81,0,0,0-3.93-1.35,42.5,42.5,0,0,1-6-2.28,11.12,11.12,0,0,1-4-3.36,9.4,9.4,0,0,1-1.68-5.81A10,10,0,0,1,195.36,17a15.84,15.84,0,0,1,10-3q6.28,0,10.14,3a10.79,10.79,0,0,1,4.13,8.38h-10a3.92,3.92,0,0,0-1.36-2.91,4.78,4.78,0,0,0-3.2-1.05,4,4,0,0,0-2.71.89,3.23,3.23,0,0,0-1,2.58,3.18,3.18,0,0,0,1.74,2.87A28.2,28.2,0,0,0,208.49,30a50.18,50.18,0,0,1,6,2.38,11.52,11.52,0,0,1,4,3.31,8.88,8.88,0,0,1,1.68,5.59,11,11,0,0,1-1.65,5.91,11.44,11.44,0,0,1-4.8,4.23A16.44,16.44,0,0,1,206.27,53,19.49,19.49,0,0,1,198.78,51.67Z"/><path class="cls-3" d="M234,50.53a18.56,18.56,0,0,1-7.1-7,19.42,19.42,0,0,1-2.63-10.06,19.29,19.29,0,0,1,2.63-10,18.7,18.7,0,0,1,7.1-6.94,20.63,20.63,0,0,1,19.69,0,18.32,18.32,0,0,1,7.06,6.94,19.74,19.74,0,0,1,2.57,10,19.59,19.59,0,0,1-2.6,10.06,18.5,18.5,0,0,1-7.05,7,20.6,20.6,0,0,1-19.67,0Zm17.15-9a11.56,11.56,0,0,0,2.73-8,11.56,11.56,0,0,0-2.73-8.06,10.44,10.44,0,0,0-14.65,0,11.45,11.45,0,0,0-2.74,8.08,11.47,11.47,0,0,0,2.74,8,10.37,10.37,0,0,0,14.65,0Z"/></g></g></g></svg>