<svg xmlns="http://www.w3.org/2000/svg" viewBox="0 0 234.67 111.5"><defs><style>.cls-1{fill:#0e2984;}.cls-2{fill:#2969b1;}.cls-3{fill:#fff;}.cls-4{fill:#0f2884;}</style></defs><g id="Layer_2" data-name="Layer 2"><g id="Logo"><g id="Clinica_Dentaria" data-name="Clinica Dentaria"><path class="cls-1" d="M1.47,97.82a8.2,8.2,0,0,1,3.16-3.21,9.27,9.27,0,0,1,4.61-1.14,8.82,8.82,0,0,1,5.4,1.66,8,8,0,0,1,3,4.54H12.9A3.93,3.93,0,0,0,11.4,98a4.22,4.22,0,0,0-2.21-.58A4.1,4.1,0,0,0,6,98.79a6.16,6.16,0,0,0,0,7.41,4.1,4.1,0,0,0,3.23,1.39A4.22,4.22,0,0,0,11.4,107a3.93,3.93,0,0,0,1.5-1.69h4.74a8,8,0,0,1-3,4.53,8.88,8.88,0,0,1-5.4,1.65,9.17,9.17,0,0,1-4.61-1.15,8.14,8.14,0,0,1-3.16-3.19A9.38,9.38,0,0,1,.33,102.5,9.48,9.48,0,0,1,1.47,97.82Z"/><path class="cls-1" d="M24.6,108.05h5.65v3.33h-10V93.67H24.6Z"/><path class="cls-1" d="M37.42,90.11l-6.08,2.55v-3l6.08-2.93Zm-.79,3.56v17.71H32.32V93.67Z"/><path class="cls-1" d="M55.6,111.38H51.29l-7.21-10.93v10.93H39.76V93.67h4.32l7.21,11v-11H55.6Z"/><path class="cls-1" d="M63.05,93.67v17.71H58.73V93.67Z"/><path class="cls-1" d="M66.58,97.82a8.13,8.13,0,0,1,3.16-3.21,9.27,9.27,0,0,1,4.61-1.14,8.82,8.82,0,0,1,5.4,1.66,8,8,0,0,1,3,4.54H78A3.89,3.89,0,0,0,76.5,98a4.16,4.16,0,0,0-2.2-.58,4.1,4.1,0,0,0-3.23,1.39,6.16,6.16,0,0,0,0,7.41,4.1,4.1,0,0,0,3.23,1.39,4.16,4.16,0,0,0,2.2-.58A3.89,3.89,0,0,0,78,105.32h4.74a8,8,0,0,1-3,4.53,8.88,8.88,0,0,1-5.4,1.65,9.17,9.17,0,0,1-4.61-1.15,8.08,8.08,0,0,1-3.16-3.19,9.38,9.38,0,0,1-1.14-4.66A9.48,9.48,0,0,1,66.58,97.82Z"/><path class="cls-1" d="M96.42,108.25H89.81l-1.06,3.13H84.24l6.4-17.71h5l6.41,17.71H97.48Zm-1.11-3.33-2.19-6.49L91,104.92Z"/><path class="cls-1" d="M120.86,94.78a8,8,0,0,1,3.25,3.11,10,10,0,0,1,0,9.25,7.85,7.85,0,0,1-3.26,3.12,10.19,10.19,0,0,1-4.88,1.12h-6.63V93.67H116A10.26,10.26,0,0,1,120.86,94.78ZM119.5,106.3a5,5,0,0,0,1.36-3.78,4.72,4.72,0,0,0-5.17-5.17h-2v10.29h2A5.18,5.18,0,0,0,119.5,106.3Z"/><path class="cls-1" d="M132,97.12v3.58h5.78V104H132v3.89h6.53v3.46H127.68V93.67h10.84v3.45Z"/><path class="cls-1" d="M157.16,111.38h-4.31l-7.21-10.93v10.93h-4.32V93.67h4.32l7.21,11v-11h4.31Z"/><path class="cls-1" d="M173,93.67v3.45h-4.69v14.26H164V97.12h-4.7V93.67Z"/><path class="cls-1" d="M186.22,108.25h-6.6l-1.06,3.13H174l6.41-17.71h5l6.41,17.71h-4.56Zm-.35-18.14-6.08,2.55v-3l6.08-2.93Zm-.75,14.81-2.2-6.49-2.17,6.49Z"/><path class="cls-1" d="M202.82,111.38l-3.68-6.69h-1v6.69h-4.32V93.67H201a7.92,7.92,0,0,1,3.57.73,5.08,5.08,0,0,1,2.21,2,5.59,5.59,0,0,1,.73,2.84,5.21,5.21,0,0,1-1,3.15,5.28,5.28,0,0,1-2.93,2l4.08,7Zm-4.71-9.74h2.67a2.45,2.45,0,0,0,1.78-.58,2.17,2.17,0,0,0,.59-1.64,2.11,2.11,0,0,0-.59-1.59,2.45,2.45,0,0,0-1.78-.58h-2.67Z"/><path class="cls-1" d="M214.56,93.67v17.71h-4.32V93.67Z"/><path class="cls-1" d="M228.71,108.25H222.1L221,111.38h-4.52l6.41-17.71h5l6.4,17.71h-4.56Zm-1.11-3.33-2.2-6.49-2.17,6.49Z"/></g><g id="Popular"><path class="cls-2" d="M26.42,62.4a10.77,10.77,0,0,1-4.48,4.24,15.77,15.77,0,0,1-7.51,1.62H8.91V81.39H0V44.81H14.43a16.51,16.51,0,0,1,7.4,1.51,10.39,10.39,0,0,1,4.53,4.17,12.1,12.1,0,0,1,1.51,6.1A11.81,11.81,0,0,1,26.42,62.4ZM17.56,60a5.22,5.22,0,0,0,0-6.78,5.3,5.3,0,0,0-3.8-1.2H8.91v9.17h4.85A5.3,5.3,0,0,0,17.56,60Z"/><path class="cls-2" d="M40.35,79.36a17.91,17.91,0,0,1-6.82-6.7,19.67,19.67,0,0,1,0-19.3,18,18,0,0,1,6.82-6.67,19.84,19.84,0,0,1,18.92,0A17.63,17.63,0,0,1,66,53.36a20,20,0,0,1,0,19.3,17.71,17.71,0,0,1-6.77,6.7,19.86,19.86,0,0,1-18.89,0Zm16.47-8.65A11.11,11.11,0,0,0,59.45,63a11.09,11.09,0,0,0-2.63-7.74,9,9,0,0,0-7-2.89,9.11,9.11,0,0,0-7.06,2.86A11.06,11.06,0,0,0,40.12,63a11,11,0,0,0,2.63,7.73,9.07,9.07,0,0,0,7.06,2.9A9,9,0,0,0,56.82,70.71Z"/><path class="cls-2" d="M99.88,62.4a10.71,10.71,0,0,1-4.48,4.24,15.76,15.76,0,0,1-7.5,1.62H82.37V81.39H73.46V44.81H87.9a16.49,16.49,0,0,1,7.39,1.51,10.42,10.42,0,0,1,4.54,4.17,12.21,12.21,0,0,1,1.51,6.1A11.82,11.82,0,0,1,99.88,62.4ZM91,60a4.45,4.45,0,0,0,1.25-3.39A4.45,4.45,0,0,0,91,53.2a5.3,5.3,0,0,0-3.8-1.2H82.37v9.17h4.85A5.3,5.3,0,0,0,91,60Z"/><path class="cls-2" d="M114.73,44.81V66.7a7.27,7.27,0,0,0,1.61,5,6.11,6.11,0,0,0,4.75,1.77,6.26,6.26,0,0,0,4.79-1.77,7.1,7.1,0,0,0,1.67-5V44.81h8.91V66.64a15.53,15.53,0,0,1-2.09,8.29,13.3,13.3,0,0,1-5.6,5.1,17.55,17.55,0,0,1-7.84,1.72,17.17,17.17,0,0,1-7.74-1.69A12.67,12.67,0,0,1,107.8,75a16.34,16.34,0,0,1-2-8.32V44.81Z"/><path class="cls-2" d="M151.62,74.51h11.67v6.88H142.71V44.81h8.91Z"/><path class="cls-2" d="M190.33,74.93H176.68l-2.19,6.46h-9.33L178.4,44.81h10.31L202,81.39h-9.43ZM188,68.05,183.5,54.66,179,68.05Z"/><path class="cls-2" d="M224.61,81.39,217,67.58h-2.13V81.39H206V44.81h14.95a16.55,16.55,0,0,1,7.37,1.51,10.33,10.33,0,0,1,4.56,4.15,11.52,11.52,0,0,1,1.51,5.86,10.89,10.89,0,0,1-2,6.51,11.14,11.14,0,0,1-6.07,4.07l8.44,14.48Zm-9.74-20.11h5.52a5,5,0,0,0,3.67-1.2,4.52,4.52,0,0,0,1.23-3.39,4.37,4.37,0,0,0-1.23-3.28,5,5,0,0,0-3.67-1.2h-5.52Z"/></g><g id="Sorriso"><path class="cls-2" d="M7.38,37.79a12.16,12.16,0,0,1-5.29-4A11,11,0,0,1,0,27.38H9.87a4.8,4.8,0,0,0,1.47,3.22,4.65,4.65,0,0,0,3.25,1.12,5.12,5.12,0,0,0,3.26-.95A3.2,3.2,0,0,0,19,28.14a3.15,3.15,0,0,0-.95-2.34,7.77,7.77,0,0,0-2.33-1.52,37.81,37.81,0,0,0-3.93-1.35,43.16,43.16,0,0,1-6-2.28,11.17,11.17,0,0,1-4-3.36A9.4,9.4,0,0,1,.11,11.48,10,10,0,0,1,4,3.16q3.86-3,10-3t10.14,3a10.75,10.75,0,0,1,4.12,8.38h-10a4,4,0,0,0-1.36-2.91,4.8,4.8,0,0,0-3.2-1.05A4,4,0,0,0,11,8.47a3.23,3.23,0,0,0-1,2.58,3.19,3.19,0,0,0,1.73,2.87,28.63,28.63,0,0,0,5.43,2.23,49.94,49.94,0,0,1,6,2.38,11.46,11.46,0,0,1,4,3.31,8.88,8.88,0,0,1,1.68,5.59,11,11,0,0,1-1.65,5.91,11.56,11.56,0,0,1-4.8,4.23,16.45,16.45,0,0,1-7.44,1.58A19.44,19.44,0,0,1,7.38,37.79Z"/><g id="Logo-2" data-name="Logo"><path class="cls-3" d="M39.57,4.41c3.06-.73,6.35,1.28,9.67,1.11,4.76-.25,5.8-4.81,9.43-4,4.42,1.58,5.22,5.29,5.14,8.37-.06,2.51-.85,3-1.55,6.2a50.4,50.4,0,0,0-.61,6.64c-.43,5.91.1,7.74-2.17,12-1,1.58-2.81,3.59-3.56,3.22-.83.18,1.71-11.12-1.15-14a4.58,4.58,0,0,0-7.07-1.1c-.74.71-1,1.62-1.44,3.46-.65,2.56-1,4-.68,5.77.24,1.29.75,2.35.39,4-.12.52-.24,1-.63,1.2-.9.38-2.72-1.36-3.7-3.18-1.78-4.39-.42-6.38-2.6-12.69-1.42-4.25-2.89-4.55-3.75-8.66C34.28,8.24,36,5.47,39.57,4.41Z"/><path class="cls-2" d="M45.9,5.18c-.59-.7-5-2.09-6.26-1.79-4.14.65-6.15,3.9-5.87,7.9-.13,3.65,2.36,6.09,3.92,9.69,2.11,5.81.61,12.81,7,16.9,3.91,2.42,1.14-7.36,2.34-11.2.52-3.35,4.36-6.18,6.76-2.43,1.66,2.86,1.39,7.23,1.13,11.7-.1,2.52,0,3.1.32,3.31,1.5.38,3.64-2.29,4.29-3.34,2.92-4.52,2.77-8.59,2.67-12.92-.09-.83-.26-6.39-.32-6.25-.9,2.52-.31,11.9-2.19,15.13-.91,2.22-1.92,3.52-2.79,3.66C56,35,58,26.8,55.42,23.51c-1.08-2.34-4.12-3.21-6.52-2.32-4.35,2-4.42,6.08-4.33,8.77,0,.84.93,5.5.14,6.31-.49.19-1.45-1.13-1.93-1.92-1.71-2.47-1.52-8.59-2-11.87-1.39-4.43-5.11-8.77-4.19-13.13C38.13,4.13,41.06,5.26,45.9,5.18Z"/><path class="cls-1" d="M57.24.21C53.59.94,50.93,3.87,47.1,4.53c-2.06.39-3.27-.11-3.38.23C45,7.19,51.32,6.94,53.13,6c1.22-.58,3.58-2.22,4.54-2.52a4.07,4.07,0,0,1,3.19,1c2.56,2.17,2.34,5.69,1.4,8.78A28.88,28.88,0,0,0,61,19c0,1.63.42,3.26.7,3.24s.33-3.42,1.19-5.83c.94-2.59.54-1.51,1.17-3.26a22.51,22.51,0,0,0,1.21-5C65.84,4.71,62.71-1.2,57.24.21Z"/><path class="cls-4" d="M38.81,13.26a6,6,0,0,1,.88-1.64c.54-.73,1.24-1.32,1.51-1.29s.33.42.36.52c.11.36-1,.38-1,.87,0,.31.25.59.85,1.14a10,10,0,0,0,1.86,1.42,15.62,15.62,0,0,0,7.27,2.5,25.89,25.89,0,0,0,3.6-.06c.25,0,1-.14,1.81-.31a11,11,0,0,0,1.95-.58c.44-.19,1.09-.58,1.3-.53s.3.23.38.83a6.18,6.18,0,0,1-.33,2.78A3.28,3.28,0,0,1,59,17.34c0-.31.15-1-.14-1.05a14.19,14.19,0,0,0-1.88.59,1.33,1.33,0,0,0-.84.55c-.5.72-1.93,2.21-1.52,3.86.08.32.9-.32,1-.19s-.48.72-1.32,1c-3.69,1.46-11.08-.36-13.55-6a8.81,8.81,0,0,1-.54-2.51c0-.71,0-1.27,0-1.61s-.89.86-.92.89A1.59,1.59,0,0,1,38.81,13.26Z"/><path class="cls-3" d="M41.06,15.27l.48-.15c.05,0,.09,0,.09-.1,0-.33-.06-1.27,0-1.28.2-.08,2.51,2,6,3.15,3.14,1,8,.21,8.07.31s-.75.64-1.3,1.81A5.34,5.34,0,0,0,54,21c0,.35-.06.66-.38.77-1.61.55-5.23-.11-5.54-.19a11.93,11.93,0,0,1-5.38-3.32C41.5,16.91,40.85,15.32,41.06,15.27Z"/></g><path class="cls-2" d="M96.5,38.77,88.58,24.39H86.36V38.77H77.08V.69H92.65a17.16,17.16,0,0,1,7.68,1.57,10.9,10.9,0,0,1,4.74,4.31,12,12,0,0,1,1.58,6.11,11.33,11.33,0,0,1-2.15,6.78,11.47,11.47,0,0,1-6.32,4.23L107,38.77ZM86.36,17.83h5.75a5.26,5.26,0,0,0,3.82-1.25,4.71,4.71,0,0,0,1.28-3.52,4.56,4.56,0,0,0-1.28-3.42,5.26,5.26,0,0,0-3.82-1.25H86.36Z"/><path class="cls-2" d="M131.87,38.77,124,24.39h-2.22V38.77h-9.28V.69H128a17.16,17.16,0,0,1,7.68,1.57,10.9,10.9,0,0,1,4.74,4.31A12,12,0,0,1,142,12.68a11.33,11.33,0,0,1-2.15,6.78,11.5,11.5,0,0,1-6.32,4.23l8.79,15.08ZM121.73,17.83h5.75a5.26,5.26,0,0,0,3.82-1.25,4.71,4.71,0,0,0,1.28-3.52,4.56,4.56,0,0,0-1.28-3.42,5.26,5.26,0,0,0-3.82-1.25h-5.75Z"/><path class="cls-2" d="M157.1.69V38.77h-9.28V.69Z"/><path class="cls-2" d="M170.11,37.79a12.19,12.19,0,0,1-5.28-4,11,11,0,0,1-2.09-6.4h9.87a4.75,4.75,0,0,0,1.46,3.22,4.7,4.7,0,0,0,3.26,1.12,5.09,5.09,0,0,0,3.25-.95,3.42,3.42,0,0,0,.25-5,7.77,7.77,0,0,0-2.33-1.52,39,39,0,0,0-3.94-1.35,43,43,0,0,1-6-2.28,11.17,11.17,0,0,1-4-3.36,9.4,9.4,0,0,1-1.68-5.81,10,10,0,0,1,3.85-8.32q3.84-3,10-3t10.15,3A10.78,10.78,0,0,1,191,11.54H181a3.94,3.94,0,0,0-1.35-2.91,4.8,4.8,0,0,0-3.2-1.05,4,4,0,0,0-2.72.89,3.26,3.26,0,0,0-1,2.58,3.18,3.18,0,0,0,1.74,2.87,28.48,28.48,0,0,0,5.42,2.23,50.18,50.18,0,0,1,6,2.38,11.55,11.55,0,0,1,4,3.31,8.88,8.88,0,0,1,1.68,5.59,10.89,10.89,0,0,1-1.66,5.91,11.44,11.44,0,0,1-4.8,4.23,16.41,16.41,0,0,1-7.43,1.58A19.53,19.53,0,0,1,170.11,37.79Z"/><path class="cls-2" d="M205.35,36.65a18.52,18.52,0,0,1-7.11-7,19.51,19.51,0,0,1-2.63-10.06,19.39,19.39,0,0,1,2.63-10,18.65,18.65,0,0,1,7.11-6.94,20.71,20.71,0,0,1,19.69,0,18.36,18.36,0,0,1,7.05,6.94,19.65,19.65,0,0,1,2.58,10,19.6,19.6,0,0,1-2.61,10.06,18.36,18.36,0,0,1-7.05,7,20.58,20.58,0,0,1-19.66,0Zm17.14-9a11.57,11.57,0,0,0,2.74-8,11.56,11.56,0,0,0-2.74-8.06,10.44,10.44,0,0,0-14.65,0,11.51,11.51,0,0,0-2.74,8.08,11.56,11.56,0,0,0,2.74,8.06,9.48,9.48,0,0,0,7.35,3A9.37,9.37,0,0,0,222.49,27.65Z"/></g></g></g></svg>