<svg xmlns="http://www.w3.org/2000/svg" viewBox="0 0 667.87 352"><defs><style>.cls-1{fill:#2969b1;}.cls-2{fill:#fff;}.cls-3{fill:#0e2984;}.cls-4{fill:#0f2884;}</style></defs><g id="Layer_2" data-name="Layer 2"><g id="DefaultLogo_Transparent"><g id="Sorriso"><path class="cls-1" d="M21,107.14A34.75,34.75,0,0,1,5.94,95.72,31.29,31.29,0,0,1,0,77.5H28.1q.62,6,4.17,9.19a13.37,13.37,0,0,0,9.26,3.16q5.86,0,9.26-2.7a9,9,0,0,0,3.4-7.49A8.88,8.88,0,0,0,51.49,73a22,22,0,0,0-6.64-4.32,108,108,0,0,0-11.19-3.86,121.65,121.65,0,0,1-17.14-6.48A31.62,31.62,0,0,1,5.09,48.79Q.3,42.46.31,32.27q0-15.14,11-23.7T39.83,0Q57.74,0,68.7,8.57T80.44,32.42H51.87A11.15,11.15,0,0,0,48,24.16a13.57,13.57,0,0,0-9.1-3,11.32,11.32,0,0,0-7.72,2.55Q28.25,26.25,28.25,31q0,5.25,4.94,8.18t15.44,6.33a141.32,141.32,0,0,1,17.06,6.8A32.56,32.56,0,0,1,77,61.75q4.78,6.18,4.78,15.91a31.25,31.25,0,0,1-4.7,16.82,33,33,0,0,1-13.67,12Q54.49,111,42.3,111A55.54,55.54,0,0,1,21,107.14Z"/><g id="Logo"><path class="cls-2" d="M119.63,14.16c8.3-2,17.22,3.47,26.24,3,12.92-.67,15.74-13,25.58-10.83,12,4.29,14.19,14.35,14,22.71-.18,6.82-2.32,8.08-4.21,16.84-.79,3.69-1.08,8.47-1.66,18-1.17,16.05.27,21-5.88,32.63-2.84,4.3-7.63,9.74-9.66,8.75-2.27.5,4.64-30.19-3.13-38.12-3.45-6.44-13.33-8.77-19.19-3-2,1.93-2.65,4.42-3.92,9.4-1.76,7-2.73,10.75-1.83,15.66.65,3.51,2,6.37,1.05,10.71-.32,1.42-.65,2.81-1.7,3.26-2.44,1-7.4-3.68-10-8.62-4.82-11.92-1.12-17.31-7-34.46-3.87-11.52-7.83-12.34-10.18-23.5C105.27,24.56,109.83,17,119.63,14.16Z"/><path class="cls-1" d="M136.79,16.25c-1.57-1.92-13.58-5.69-17-4.87C108.59,13.16,103.12,22,103.9,32.83c-.36,9.89,6.38,16.52,10.61,26.28,5.73,15.77,1.68,34.76,19,45.86,10.62,6.57,3.11-20,6.35-30.37,1.41-9.11,11.84-16.78,18.36-6.61,4.49,7.75,3.75,19.64,3.05,31.76-.28,6.84-.14,8.41.87,9,4.09,1,9.89-6.19,11.66-9,7.93-12.27,7.5-23.31,7.24-35.08-.25-2.24-.7-17.34-.88-16.94-2.43,6.83-.83,32.28-5.92,41.05-2.49,6-5.23,9.56-7.58,9.92-2.43-1.35,2.89-23.7-4-32.63-2.93-6.35-11.18-8.71-17.68-6.31-11.81,5.51-12,16.52-11.76,23.81,0,2.29,2.51,14.93.37,17.13-1.32.51-3.94-3.08-5.22-5.22-4.65-6.69-4.13-23.3-5.39-32.2-3.76-12-13.88-23.81-11.36-35.64C115.71,13.4,123.66,16.47,136.79,16.25Z"/><path class="cls-3" d="M167.59,2.76c-9.92,2-17.13,9.94-27.53,11.73-5.58,1-8.88-.31-9.17.62,3.38,6.6,20.61,5.9,25.55,3.42,3.3-1.58,9.69-6,12.32-6.86,3.94-.95,7.75,2.06,8.63,2.75,7,5.89,6.35,15.43,3.82,23.83-1.18,4.27-3.43,11.59-3.43,15.6-.08,4.42,1.15,8.84,1.9,8.81,1.07-.06.9-9.3,3.24-15.84,2.54-7,1.46-4.08,3.16-8.83,1.25-3.76,3.29-10.52,3.28-13.7C190.92,15,182.42-1.06,167.59,2.76Z"/><path class="cls-4" d="M117.56,38.17a15.9,15.9,0,0,1,2.4-4.45c1.46-2,3.37-3.58,4.1-3.52s.9,1.16,1,1.43c.27,1-2.78,1-2.73,2.36,0,.85.67,1.6,2.3,3.1a29,29,0,0,0,5,3.85,42.5,42.5,0,0,0,19.73,6.79,69.23,69.23,0,0,0,9.78-.18c.67,0,2.61-.37,4.91-.82a31.18,31.18,0,0,0,5.29-1.59c1.2-.51,3-1.57,3.54-1.44.29.06.8.62,1,2.25.41,3-.58,7.51-.89,7.54s-.67-2.05-.62-4.26c0-.83.4-2.68-.38-2.83S167.49,47.88,167,48a3.66,3.66,0,0,0-2.3,1.5c-1.35,2-5.22,6-4.12,10.48.21.86,2.44-.87,2.64-.54.35.57-1.32,2-3.59,2.88-10,4-30.07-1-36.77-16.43a23.48,23.48,0,0,1-1.45-6.81c0-1.92,0-3.45,0-4.37,0-.76-2.43,2.33-2.51,2.41C118.34,37.67,117.65,38.23,117.56,38.17Z"/><path class="cls-2" d="M123.67,43.61c.31-.08.86-.25,1.3-.39a.34.34,0,0,0,.25-.28c0-.9-.15-3.44,0-3.48.56-.19,6.83,5.56,16.19,8.57,8.53,2.74,21.72.55,21.89.83s-2,1.74-3.53,4.92a14.73,14.73,0,0,0-.91,5.48c0,.94-.16,1.79-1,2.09-4.38,1.5-14.22-.31-15.06-.51a32.76,32.76,0,0,1-14.6-9C124.85,48.08,123.1,43.76,123.67,43.61Z"/></g><path class="cls-1" d="M274.65,109.92,252.11,69h-6.33v40.91h-26.4V1.54h44.31q12.81,0,21.84,4.48A30.84,30.84,0,0,1,299,18.29a34.21,34.21,0,0,1,4.48,17.37,32.22,32.22,0,0,1-6.1,19.3q-6.09,8.49-18,12l25,42.92ZM245.78,50.33h16.37q7.25,0,10.88-3.55t3.63-10c0-4.11-1.21-7.36-3.63-9.72s-6-3.55-10.88-3.55H245.78Z"/><path class="cls-1" d="M375.31,109.92,352.77,69h-6.33v40.91H320V1.54h44.31q12.81,0,21.84,4.48A31,31,0,0,1,399.7,18.29a34.21,34.21,0,0,1,4.48,17.37,32.22,32.22,0,0,1-6.1,19.3q-6.1,8.49-18,12l25,42.92ZM346.44,50.33H362.8q7.26,0,10.89-3.55t3.62-10c0-4.11-1.21-7.36-3.62-9.72s-6.05-3.55-10.89-3.55H346.44Z"/><path class="cls-1" d="M447.1,1.54V109.92H420.7V1.54Z"/><path class="cls-1" d="M484.15,107.14a34.66,34.66,0,0,1-15-11.42,31.23,31.23,0,0,1-6-18.22h28.1q.62,6,4.17,9.19a13.39,13.39,0,0,0,9.26,3.16q5.86,0,9.27-2.7a9,9,0,0,0,3.39-7.49,8.88,8.88,0,0,0-2.7-6.64A21.86,21.86,0,0,0,508,68.7a106.37,106.37,0,0,0-11.19-3.86,122.13,122.13,0,0,1-17.14-6.48,31.67,31.67,0,0,1-11.42-9.57q-4.78-6.33-4.79-16.52,0-15.14,11-23.7T503,0q17.91,0,28.87,8.57t11.74,23.85H515a11.22,11.22,0,0,0-3.86-8.26,13.6,13.6,0,0,0-9.11-3,11.34,11.34,0,0,0-7.72,2.55c-2,1.7-2.93,4.14-2.93,7.33q0,5.25,4.94,8.18t15.43,6.33a141.32,141.32,0,0,1,17.06,6.8,32.47,32.47,0,0,1,11.35,9.41Q545,67.93,545,77.66a31.18,31.18,0,0,1-4.71,16.82,33,33,0,0,1-13.66,12q-9,4.47-21.16,4.47A55.62,55.62,0,0,1,484.15,107.14Z"/><path class="cls-1" d="M584.42,103.9A53.05,53.05,0,0,1,564.2,84.06a55.35,55.35,0,0,1-7.49-28.64,55,55,0,0,1,7.49-28.56A53.35,53.35,0,0,1,584.42,7.1a58.84,58.84,0,0,1,56,0,52.26,52.26,0,0,1,20.07,19.76,55.92,55.92,0,0,1,7.34,28.56,55.87,55.87,0,0,1-7.41,28.64,52.74,52.74,0,0,1-20.07,19.84,58.7,58.7,0,0,1-56,0Zm48.79-25.63Q641,69.63,641,55.42T633.21,32.5q-7.8-8.58-20.77-8.57-13.12,0-20.92,8.49t-7.79,23q0,14.37,7.79,22.93t20.92,8.57Q625.42,86.92,633.21,78.27Z"/></g><g id="Clínica_Dentária" data-name="Clínica Dentária"><path class="cls-1" d="M3.24,312.94a23.1,23.1,0,0,1,9-9.14,26.26,26.26,0,0,1,13.14-3.28,25.16,25.16,0,0,1,15.4,4.75,22.8,22.8,0,0,1,8.57,13H35.86a11,11,0,0,0-4.29-4.82,12.09,12.09,0,0,0-6.3-1.65,11.75,11.75,0,0,0-9.21,4q-3.54,4-3.53,10.58t3.53,10.58a11.75,11.75,0,0,0,9.21,4,12.09,12.09,0,0,0,6.3-1.65,11,11,0,0,0,4.29-4.83H49.39a22.63,22.63,0,0,1-8.57,12.93A25.27,25.27,0,0,1,25.42,352a26.25,26.25,0,0,1-13.14-3.27,23.22,23.22,0,0,1-9-9.11,29.08,29.08,0,0,1,0-26.68Z"/><path class="cls-1" d="M69.26,342.14H85.39v9.5H57V301.1H69.26Z"/><path class="cls-1" d="M105.84,291l-17.35,7.27v-8.5l17.35-8.35Zm-2.23,10.15v50.54H91.29V301.1Z"/><path class="cls-1" d="M157.75,351.64H145.44l-20.59-31.17v31.17H112.54V301.1h12.31l20.59,31.32V301.1h12.31Z"/><path class="cls-1" d="M179,301.1v50.54H166.68V301.1Z"/><path class="cls-1" d="M189.07,312.94a23.1,23.1,0,0,1,9-9.14,26.26,26.26,0,0,1,13.14-3.28,25.21,25.21,0,0,1,15.41,4.75,22.83,22.83,0,0,1,8.56,13H221.69a11,11,0,0,0-4.29-4.82,12.09,12.09,0,0,0-6.3-1.65,11.75,11.75,0,0,0-9.21,4q-3.54,4-3.53,10.58t3.53,10.58a11.75,11.75,0,0,0,9.21,4,12.09,12.09,0,0,0,6.3-1.65,11,11,0,0,0,4.29-4.83h13.53a22.66,22.66,0,0,1-8.56,12.93A25.32,25.32,0,0,1,211.25,352a26.25,26.25,0,0,1-13.14-3.27,23.22,23.22,0,0,1-9-9.11,29.08,29.08,0,0,1,0-26.68Z"/><path class="cls-1" d="M274.25,342.72H255.38l-3,8.92H239.47l18.29-50.54H272l18.29,50.54h-13Zm-3.17-9.51-6.27-18.5-6.19,18.5Z"/><path class="cls-1" d="M344,304.27a22.61,22.61,0,0,1,9.26,8.89,28.26,28.26,0,0,1,0,26.39,22.66,22.66,0,0,1-9.29,8.93A29.49,29.49,0,0,1,330,351.64H311.11V301.1H330A29.41,29.41,0,0,1,344,304.27Zm-3.88,32.9q3.89-3.81,3.88-10.8t-3.88-10.87q-3.9-3.88-10.88-3.89h-5.83V341h5.83Q336.24,341,340.13,337.17Z"/><path class="cls-1" d="M375.76,311v10.23h16.49v9.5H375.76v11.09h18.65v9.86h-31V301.1h31V311Z"/><path class="cls-1" d="M447.62,351.64H435.31l-20.59-31.17v31.17H402.4V301.1h12.32l20.59,31.32V301.1h12.31Z"/><path class="cls-1" d="M492.91,301.1V311H479.52v40.68H467.2V311H453.81V301.1Z"/><path class="cls-1" d="M530.56,342.72H511.7l-3,8.92H495.79l18.28-50.54h14.26l18.29,50.54h-13Zm-1-51.77-17.35,7.27v-8.5l17.35-8.35Zm-2.16,42.26-6.26-18.5-6.19,18.5Z"/><path class="cls-1" d="M577.94,351.64l-10.51-19.08h-3v19.08H552.16V301.1h20.67A22.73,22.73,0,0,1,583,303.19a14.45,14.45,0,0,1,6.31,5.72,16,16,0,0,1,2.08,8.1,15,15,0,0,1-2.84,9,15.35,15.35,0,0,1-8.39,5.62l11.66,20Zm-13.47-27.79h7.64a7,7,0,0,0,5.07-1.66,6.23,6.23,0,0,0,1.7-4.67,6.06,6.06,0,0,0-1.7-4.54,7,7,0,0,0-5.07-1.66h-7.64Z"/><path class="cls-1" d="M611.42,301.1v50.54H599.11V301.1Z"/><path class="cls-1" d="M651.81,342.72H633l-3,8.92H617l18.29-50.54h14.26l18.29,50.54h-13Zm-3.17-9.51-6.26-18.5-6.19,18.5Z"/></g><rect class="cls-3" y="257.62" width="667.87" height="13.75" rx="6.88"/><g id="Popular"><path class="cls-1" d="M75.18,172.53a30.61,30.61,0,0,1-12.75,12.09q-8.61,4.59-21.35,4.59H25.36v37.37H0V122.48H41.08q12.45,0,21.05,4.3A29.63,29.63,0,0,1,75,138.65,34.43,34.43,0,0,1,79.33,156,33.48,33.48,0,0,1,75.18,172.53ZM50,165.64q3.56-3.42,3.56-9.64T50,146.36Q46.42,143,39.15,143H25.36v26.1H39.15Q46.41,169.05,50,165.64Z"/><path class="cls-1" d="M114.84,220.8a51,51,0,0,1-19.42-19.06,56.07,56.07,0,0,1,0-54.94,51.21,51.21,0,0,1,19.42-19,56.52,56.52,0,0,1,53.83,0,50.15,50.15,0,0,1,19.28,19,56.83,56.83,0,0,1-.08,54.94A50.6,50.6,0,0,1,168.6,220.8a56.38,56.38,0,0,1-53.76,0Zm46.86-24.62q7.49-8.3,7.49-21.94,0-13.8-7.49-22T141.76,144q-12.62,0-20.09,8.15t-7.49,22.1q0,13.78,7.49,22t20.09,8.23Q154.21,204.49,161.7,196.18Z"/><path class="cls-1" d="M284.26,172.53a30.61,30.61,0,0,1-12.75,12.09q-8.61,4.59-21.36,4.59H234.44v37.37H209.08V122.48h41.07q12.46,0,21.06,4.3a29.63,29.63,0,0,1,12.9,11.87,34.43,34.43,0,0,1,4.3,17.35A33.48,33.48,0,0,1,284.26,172.53Zm-25.21-6.89q3.56-3.42,3.56-9.64t-3.56-9.64Q255.5,143,248.23,143H234.44v26.1h13.79Q255.49,169.05,259.05,165.64Z"/><path class="cls-1" d="M326.52,122.48v62.28q0,9.35,4.6,14.39t13.49,5q8.89,0,13.64-5T363,184.76V122.48h25.35v62.14q0,13.94-5.93,23.57a37.86,37.86,0,0,1-15.94,14.53,50,50,0,0,1-22.31,4.9,48.89,48.89,0,0,1-22-4.82,35.88,35.88,0,0,1-15.35-14.53q-5.64-9.72-5.64-23.65V122.48Z"/><path class="cls-1" d="M431.5,207h33.22v19.57H406.15V122.48H431.5Z"/><path class="cls-1" d="M541.68,208.19H502.83l-6.23,18.39H470.05l37.67-104.1h29.36l37.66,104.1H547.9Zm-6.53-19.57-12.9-38.11L509.5,188.62Z"/><path class="cls-1" d="M639.25,226.58l-21.65-39.3h-6.08v39.3H586.16V122.48h42.56q12.3,0,21,4.3a29.7,29.7,0,0,1,13,11.79,33,33,0,0,1,4.3,16.69,31,31,0,0,1-5.86,18.53q-5.86,8.16-17.28,11.57l24,41.22Zm-27.73-57.24h15.72q7,0,10.45-3.41t3.48-9.64q0-5.92-3.48-9.34t-10.45-3.41H611.52Z"/></g></g></g></svg>