<svg xmlns="http://www.w3.org/2000/svg" viewBox="0 0 575.74 323.43"><defs><style>.cls-1{fill:#0e2984;}.cls-2{fill:#2969b1;}.cls-3{fill:#fff;}.cls-4{fill:#0f2884;}</style></defs><g id="Layer_2" data-name="Layer 2"><g id="Brand_Logo_2" data-name="Brand Logo 2"><rect class="cls-1" y="236.35" width="575.61" height="13.75"/><path class="cls-2" d="M2.79,288.41a20.45,20.45,0,0,1,7.79-8.2,21.92,21.92,0,0,1,11.33-2.93,21,21,0,0,1,13.28,4.26,20.53,20.53,0,0,1,7.39,11.62H30.91a9.68,9.68,0,0,0-3.69-4.33,10.11,10.11,0,0,0-5.43-1.49,10,10,0,0,0-7.95,3.56c-2,2.36-3,5.53-3,9.48s1,7.13,3,9.49a10,10,0,0,0,8,3.55,10.1,10.1,0,0,0,5.43-1.48,9.68,9.68,0,0,0,3.69-4.33H42.58a20.38,20.38,0,0,1-7.39,11.59,21.2,21.2,0,0,1-13.28,4.23,21.92,21.92,0,0,1-11.33-2.94,20.54,20.54,0,0,1-7.79-8.16,27,27,0,0,1,0-23.92Z"/><path class="cls-2" d="M59.71,314.59h13.9v8.52H49.1V277.79H59.71Z"/><path class="cls-2" d="M89.31,277.79v45.32H78.7V277.79Z"/><path class="cls-2" d="M136,323.11H125.38l-17.76-27.95v27.95H97V277.79h10.61l17.76,28.08V277.79H136Z"/><path class="cls-2" d="M154.3,277.79v45.32H143.69V277.79Z"/><path class="cls-2" d="M163,288.41a20.39,20.39,0,0,1,7.79-8.2,21.92,21.92,0,0,1,11.33-2.93,21,21,0,0,1,13.28,4.26,20.51,20.51,0,0,1,7.38,11.62H191.11a9.64,9.64,0,0,0-3.7-4.33,10.06,10.06,0,0,0-5.43-1.49A9.94,9.94,0,0,0,174,290.9c-2,2.36-3,5.53-3,9.48s1,7.13,3,9.49a9.93,9.93,0,0,0,7.94,3.55,10.06,10.06,0,0,0,5.43-1.48,9.64,9.64,0,0,0,3.7-4.33h11.66a20.37,20.37,0,0,1-7.38,11.59,21.2,21.2,0,0,1-13.28,4.23,21.92,21.92,0,0,1-11.33-2.94,20.47,20.47,0,0,1-7.79-8.16,27,27,0,0,1,0-23.92Z"/><path class="cls-2" d="M236.42,315.1H220.15l-2.6,8H206.44l15.76-45.32h12.29l15.77,45.32H239Zm-2.74-8.52L228.28,290,223,306.58Z"/><path class="cls-2" d="M296.56,280.63a19.91,19.91,0,0,1,8,8,26.14,26.14,0,0,1,0,23.66,19.84,19.84,0,0,1-8,8,24.65,24.65,0,0,1-12,2.84H268.19V277.79h16.33A24.6,24.6,0,0,1,296.56,280.63Zm-3.35,29.5q3.35-3.42,3.35-9.68t-3.35-9.75q-3.36-3.48-9.38-3.48h-5v26.33h5Q289.86,313.55,293.21,310.13Z"/><path class="cls-2" d="M323.93,286.64v9.16h14.21v8.52H323.93v9.94H340v8.85H313.32V277.79H340v8.85Z"/><path class="cls-2" d="M385.87,323.11H375.26l-17.75-27.95v27.95H346.89V277.79h10.62l17.75,28.08V277.79h10.61Z"/><path class="cls-2" d="M424.91,277.79v8.85H413.37v36.47H402.76V286.64H391.21v-8.85Z"/><path class="cls-2" d="M457.37,315.1H441.11l-2.6,8H427.4l15.76-45.32h12.29l15.77,45.32H460Zm-.86-46.41-15,6.52v-7.62l15-7.48Zm-1.87,37.89L449.24,290l-5.33,16.59Z"/><path class="cls-2" d="M498.21,323.11,489.15,306h-2.54v17.11H476V277.79h17.82a19.07,19.07,0,0,1,8.78,1.87A12.58,12.58,0,0,1,508,284.8a14.75,14.75,0,0,1,1.8,7.26,13.91,13.91,0,0,1-2.45,8.07,13.26,13.26,0,0,1-7.23,5l10.05,17.95Zm-11.6-24.92h6.58a5.83,5.83,0,0,0,4.37-1.49,5.71,5.71,0,0,0,1.46-4.19,5.57,5.57,0,0,0-1.46-4.07,5.87,5.87,0,0,0-4.37-1.48h-6.58Z"/><path class="cls-2" d="M527.08,277.79v45.32H516.46V277.79Z"/><path class="cls-2" d="M561.9,315.1H545.63l-2.6,8H531.92l15.76-45.32H560l15.77,45.32H564.5Zm-2.74-8.52L553.77,290l-5.34,16.59Z"/><path class="cls-2" d="M64.79,167a26.77,26.77,0,0,1-11,10.84q-7.41,4.11-18.4,4.12H21.85v33.49H0v-93.3H35.4q10.74,0,18.15,3.85A26,26,0,0,1,64.67,136.6a31.93,31.93,0,0,1,3.7,15.56A30.92,30.92,0,0,1,64.79,167Zm-21.72-6.18c2-2,3.07-4.91,3.07-8.63s-1-6.61-3.07-8.64-5.16-3.06-9.33-3.06H21.85v23.39H33.74Q40,163.85,43.07,160.79Z"/><path class="cls-2" d="M99,210.24a44.82,44.82,0,0,1-16.74-17.08,52,52,0,0,1,0-49.25A45,45,0,0,1,99,126.9a47.08,47.08,0,0,1,46.39,0,44.11,44.11,0,0,1,16.62,17,52.72,52.72,0,0,1-.07,49.25,44.57,44.57,0,0,1-16.61,17.08,47,47,0,0,1-46.33,0Zm40.39-22.07q6.45-7.44,6.45-19.67t-6.45-19.73q-6.47-7.38-17.19-7.38-10.87,0-17.32,7.31T98.4,168.5q0,12.36,6.46,19.74t17.32,7.38Q132.91,195.62,139.37,188.17Z"/><path class="cls-2" d="M245,167a26.77,26.77,0,0,1-11,10.84q-7.41,4.11-18.4,4.12H202.05v33.49H180.2v-93.3h35.4q10.72,0,18.15,3.85a25.92,25.92,0,0,1,11.11,10.63,31.93,31.93,0,0,1,3.71,15.56A30.92,30.92,0,0,1,245,167Zm-21.72-6.18q3.06-3,3.06-8.63t-3.06-8.64q-3.08-3.06-9.33-3.06H202.05v23.39h11.89Q220.2,163.85,223.27,160.79Z"/><path class="cls-2" d="M281.41,122.12v55.82q0,8.37,4,12.89T297,195.35q7.67,0,11.75-4.52t4.09-12.89V122.12h21.86v55.69q0,12.49-5.11,21.13a33.31,33.31,0,0,1-13.74,13,41.9,41.9,0,0,1-19.24,4.38,40.79,40.79,0,0,1-19-4.32,31.46,31.46,0,0,1-13.22-13q-4.86-8.72-4.86-21.2V122.12Z"/><path class="cls-2" d="M371.89,197.88h28.63v17.54H350v-93.3h21.85Z"/><path class="cls-2" d="M466.85,198.94H433.37L428,215.42H405.12l32.46-93.3h25.31l32.46,93.3H472.22Zm-5.62-17.54-11.12-34.16-11,34.16Z"/><path class="cls-2" d="M550.94,215.42,532.28,180.2H527v35.22H505.19v-93.3h36.68q10.61,0,18.08,3.85a26,26,0,0,1,11.19,10.57,30.4,30.4,0,0,1,3.7,15,28.49,28.49,0,0,1-5.05,16.61q-5,7.32-14.89,10.37l20.71,36.95ZM527,164.12h13.55q6,0,9-3.06t3-8.64q0-5.31-3-8.37t-9-3.06H527Z"/><g id="Logo"><path class="cls-3" d="M98.82,11.83c8.21-2,17,3.43,25.91,3C137.5,14.12,140.28,1.91,150,4.09c11.86,4.24,14,14.17,13.8,22.43-.18,6.73-2.29,8-4.16,16.63-.79,3.65-1.07,8.36-1.65,17.79-1.14,15.85.28,20.75-5.8,32.23-2.8,4.24-7.53,9.62-9.54,8.64-2.24.49,4.59-29.81-3.09-37.64-3.41-6.36-13.16-8.67-19-3-2,1.9-2.62,4.36-3.87,9.28C115,77.35,114.05,81.1,114.94,86c.63,3.47,2,6.29,1,10.57-.32,1.41-.65,2.78-1.68,3.23-2.41,1-7.3-3.64-9.92-8.51-4.76-11.78-1.11-17.1-7-34C93.58,45.82,89.67,45,87.35,34,84.65,22.09,89.15,14.67,98.82,11.83Z"/><path class="cls-2" d="M115.78,13.89C114.22,12,102.37,8.27,99,9.08c-11.1,1.76-16.5,10.47-15.73,21.18-.35,9.77,6.31,16.32,10.48,26,5.66,15.57,1.66,34.32,18.74,45.29,10.49,6.48,3.07-19.72,6.27-30,1.4-9,11.7-16.57,18.14-6.53,4.43,7.66,3.7,19.4,3,31.37-.28,6.76-.14,8.3.85,8.85,4,1,9.78-6.11,11.52-8.93,7.83-12.12,7.41-23,7.15-34.64-.25-2.22-.69-17.13-.87-16.73-2.4,6.75-.81,31.88-5.85,40.54-2.45,5.94-5.16,9.44-7.48,9.79-2.4-1.33,2.86-23.4-3.95-32.22-2.89-6.27-11-8.6-17.46-6.23C112.18,62.22,112,73.09,112.22,80.3c0,2.25,2.48,14.73.38,16.91-1.32.5-3.89-3-5.16-5.16-4.59-6.6-4.08-23-5.33-31.79C98.4,48.39,88.41,36.74,90.9,25.06,95,11.07,102.81,14.1,115.78,13.89Z"/><path class="cls-1" d="M146.19.57c-9.8,2-16.91,9.81-27.19,11.58-5.51,1-8.77-.31-9.06.61,3.34,6.52,20.36,5.83,25.24,3.39,3.26-1.57,9.57-6,12.16-6.78,3.9-.94,7.66,2,8.53,2.72,6.88,5.81,6.27,15.24,3.77,23.52-1.17,4.23-3.39,11.45-3.39,15.41-.08,4.37,1.14,8.73,1.87,8.7,1.06,0,.89-9.18,3.21-15.64,2.5-6.95,1.44-4,3.11-8.72,1.24-3.71,3.25-10.39,3.25-13.53C169.23,12.63,160.84-3.2,146.19.57Z"/><path class="cls-4" d="M96.78,35.53a16.1,16.1,0,0,1,2.37-4.39c1.44-1.94,3.33-3.53,4-3.47s.89,1.14,1,1.41c.28,1-2.73,1-2.69,2.33,0,.84.67,1.58,2.28,3.07a27.88,27.88,0,0,0,5,3.79A41.89,41.89,0,0,0,128.21,45a70.59,70.59,0,0,0,9.66-.18c.66,0,2.58-.37,4.86-.81a30.45,30.45,0,0,0,5.21-1.57c1.19-.5,2.94-1.55,3.5-1.42.28.06.79.61,1,2.22.4,2.93-.58,7.42-.88,7.45s-.66-2-.61-4.21c0-.82.4-2.65-.38-2.79s-4.5,1.46-5,1.56a3.6,3.6,0,0,0-2.26,1.49c-1.34,1.93-5.16,5.93-4.08,10.34.21.86,2.41-.86,2.61-.52.35.55-1.3,2-3.54,2.83-9.88,3.91-29.69-1-36.31-16.22a23,23,0,0,1-1.44-6.72c0-1.9,0-3.41,0-4.32,0-.75-2.39,2.3-2.47,2.38C97.55,35.05,96.87,35.6,96.78,35.53Z"/><path class="cls-3" d="M102.82,40.91c.3-.08.85-.25,1.27-.39a.31.31,0,0,0,.25-.28c0-.88-.14-3.39,0-3.43.55-.19,6.74,5.5,16,8.47,8.43,2.7,21.46.54,21.62.81s-2,1.72-3.48,4.86a14.6,14.6,0,0,0-.9,5.41c0,.93-.16,1.77-1,2.07-4.32,1.48-14-.31-14.87-.51A32.27,32.27,0,0,1,107.23,49C104,45.33,102.26,41.05,102.82,40.91Z"/></g><path class="cls-2" d="M17.38,97.11A28.85,28.85,0,0,1,4.92,87.28,27.59,27.59,0,0,1,0,71.59H23.26q.51,5.19,3.45,7.91a10.81,10.81,0,0,0,7.67,2.73,11.71,11.71,0,0,0,7.67-2.33,7.92,7.92,0,0,0,2.81-6.45,7.79,7.79,0,0,0-2.24-5.71A17.83,17.83,0,0,0,37.13,64a85.7,85.7,0,0,0-9.27-3.33,99.1,99.1,0,0,1-14.19-5.58,26.5,26.5,0,0,1-9.45-8.24q-4-5.44-4-14.22,0-13,9.07-20.4T33,4.87q14.84,0,23.9,7.38t9.71,20.53H42.94a9.81,9.81,0,0,0-3.19-7.11,11,11,0,0,0-7.54-2.59,9.15,9.15,0,0,0-6.39,2.19,8.07,8.07,0,0,0-2.43,6.32,7.86,7.86,0,0,0,4.09,7,65.54,65.54,0,0,0,12.78,5.45,116.13,116.13,0,0,1,14.12,5.85A27.08,27.08,0,0,1,63.77,58q4,5.31,4,13.68a27.15,27.15,0,0,1-15.2,24.86A37.5,37.5,0,0,1,35,100.43,44.53,44.53,0,0,1,17.38,97.11Z"/><path class="cls-2" d="M229.1,99.5,210.44,64.28H205.2V99.5H183.35V6.2H220q10.6,0,18.08,3.85A26,26,0,0,1,249.3,20.62a30.43,30.43,0,0,1,3.7,15A28.52,28.52,0,0,1,248,52.19q-5,7.31-14.88,10.36l20.7,37ZM205.2,48.2h13.55q6,0,9-3.06c2-2,3-4.92,3-8.64a11.45,11.45,0,0,0-3-8.37q-3-3.06-9-3.06H205.2Z"/><path class="cls-2" d="M312.43,99.5,293.77,64.28h-5.24V99.5H266.68V6.2h36.67q10.62,0,18.09,3.85a26,26,0,0,1,11.18,10.57,30.44,30.44,0,0,1,3.71,15,28.6,28.6,0,0,1-5.05,16.62q-5.05,7.31-14.89,10.36l20.7,37Zm-23.9-51.3h13.55q6,0,9-3.06t3-8.64q0-5.31-3-8.37t-9-3.06H288.53Z"/><path class="cls-2" d="M371.86,6.2V99.5H350V6.2Z"/><path class="cls-2" d="M402.53,97.11a28.85,28.85,0,0,1-12.46-9.83,27.59,27.59,0,0,1-4.92-15.69h23.26q.51,5.19,3.45,7.91a10.8,10.8,0,0,0,7.66,2.73,11.67,11.67,0,0,0,7.67-2.33A7.89,7.89,0,0,0,430,73.45a7.79,7.79,0,0,0-2.23-5.71,17.76,17.76,0,0,0-5.5-3.72A84.6,84.6,0,0,0,413,60.69a98.16,98.16,0,0,1-14.19-5.58,26.53,26.53,0,0,1-9.46-8.24q-4-5.44-4-14.22,0-13,9.08-20.4t23.64-7.38q14.82,0,23.9,7.38t9.71,20.53H428.09a9.78,9.78,0,0,0-3.2-7.11,11,11,0,0,0-7.54-2.59A9.18,9.18,0,0,0,411,25.27a8.07,8.07,0,0,0-2.43,6.32,7.88,7.88,0,0,0,4.09,7,66.1,66.1,0,0,0,12.78,5.45,116.36,116.36,0,0,1,14.13,5.85A27.08,27.08,0,0,1,448.92,58q4,5.31,4,13.68a27.18,27.18,0,0,1-15.21,24.86,37.47,37.47,0,0,1-17.51,3.85A44.44,44.44,0,0,1,402.53,97.11Z"/><path class="cls-2" d="M485.53,94.32a44.75,44.75,0,0,1-16.74-17.08,49.24,49.24,0,0,1-6.2-24.65A48.86,48.86,0,0,1,468.79,28a44.94,44.94,0,0,1,16.74-17,47.08,47.08,0,0,1,46.39,0,44.07,44.07,0,0,1,16.62,17,49.72,49.72,0,0,1,6.07,24.59,49.62,49.62,0,0,1-6.14,24.65,44.43,44.43,0,0,1-16.61,17.08,47,47,0,0,1-46.33,0Zm40.39-22.06q6.45-7.44,6.45-19.67t-6.45-19.74q-6.46-7.38-17.19-7.38t-17.32,7.31Q485,40.1,485,52.59t6.45,19.73q6.45,7.38,17.32,7.38T525.92,72.26Z"/></g></g></svg>