<svg xmlns="http://www.w3.org/2000/svg" viewBox="0 0 667.87 374.16"><defs><style>.cls-1{fill:#2969b1;}.cls-2{fill:#0e2984;}.cls-3{fill:#fff;}.cls-4{fill:#0f2884;}</style></defs><g id="Layer_2" data-name="Layer 2"><g id="Profile"><path class="cls-1" d="M3.24,335.1a23.13,23.13,0,0,1,9-9.15,26.25,26.25,0,0,1,13.14-3.27,25.1,25.1,0,0,1,15.4,4.75,22.8,22.8,0,0,1,8.57,13H35.86a11,11,0,0,0-4.29-4.83,12.09,12.09,0,0,0-6.3-1.65,11.75,11.75,0,0,0-9.21,4q-3.54,4-3.53,10.58T16.06,359a11.75,11.75,0,0,0,9.21,4,12.1,12.1,0,0,0,6.3-1.66,10.92,10.92,0,0,0,4.29-4.82H49.39a22.6,22.6,0,0,1-8.57,12.92,25.27,25.27,0,0,1-15.4,4.72,26.26,26.26,0,0,1-13.14-3.28,23.16,23.16,0,0,1-9-9.11,29.06,29.06,0,0,1,0-26.67Z"/><path class="cls-1" d="M69.26,364.29H85.39v9.51H57V323.25H69.26Z"/><path class="cls-1" d="M105.84,313.1l-17.35,7.27v-8.49l17.35-8.36Zm-2.23,10.15V373.8H91.29V323.25Z"/><path class="cls-1" d="M157.75,373.8H145.44l-20.59-31.18V373.8H112.53V323.25h12.32l20.59,31.32V323.25h12.31Z"/><path class="cls-1" d="M179,323.25V373.8H166.68V323.25Z"/><path class="cls-1" d="M189.07,335.1a23.13,23.13,0,0,1,9-9.15,26.25,26.25,0,0,1,13.14-3.27,25.1,25.1,0,0,1,15.4,4.75,22.8,22.8,0,0,1,8.57,13H221.69a11,11,0,0,0-4.29-4.83,12.09,12.09,0,0,0-6.3-1.65,11.75,11.75,0,0,0-9.21,4q-3.54,4-3.53,10.58T201.89,359a11.75,11.75,0,0,0,9.21,4,12.1,12.1,0,0,0,6.3-1.66,10.92,10.92,0,0,0,4.29-4.82h13.53a22.6,22.6,0,0,1-8.57,12.92,25.27,25.27,0,0,1-15.4,4.72,26.26,26.26,0,0,1-13.14-3.28,23.16,23.16,0,0,1-9-9.11,29.06,29.06,0,0,1,0-26.67Z"/><path class="cls-1" d="M274.25,364.87H255.38l-3,8.93H239.47l18.29-50.55H272L290.3,373.8h-13Zm-3.17-9.51-6.27-18.5-6.19,18.5Z"/><path class="cls-1" d="M344,326.42a22.67,22.67,0,0,1,9.26,8.89,28.26,28.26,0,0,1,0,26.39,22.59,22.59,0,0,1-9.29,8.93A29.52,29.52,0,0,1,330,373.8H311.11V323.25H330A29.41,29.41,0,0,1,344,326.42Zm-3.89,32.9q3.9-3.81,3.89-10.8t-3.89-10.87q-3.89-3.88-10.87-3.89h-5.83v29.38h5.83Q336.24,363.14,340.12,359.32Z"/><path class="cls-1" d="M375.76,333.12v10.22h16.49v9.5H375.76v11.09h18.65v9.87h-31V323.25h31v9.87Z"/><path class="cls-1" d="M447.62,373.8H435.31l-20.59-31.18V373.8H402.4V323.25h12.32l20.59,31.32V323.25h12.31Z"/><path class="cls-1" d="M492.91,323.25v9.87H479.52V373.8H467.2V333.12H453.81v-9.87Z"/><path class="cls-1" d="M530.56,364.87H511.7l-3,8.93H495.79l18.28-50.55h14.26l18.29,50.55h-13Zm-1-51.77-17.35,7.27v-8.49l17.35-8.36Zm-2.16,42.26-6.26-18.5-6.19,18.5Z"/><path class="cls-1" d="M577.94,373.8l-10.51-19.08h-3V373.8H552.16V323.25h20.67A22.73,22.73,0,0,1,583,325.34a14.36,14.36,0,0,1,6.3,5.72,15.93,15.93,0,0,1,2.09,8.1,15.08,15.08,0,0,1-2.84,9,15.3,15.3,0,0,1-8.39,5.62l11.66,20ZM564.47,346h7.64a7,7,0,0,0,5.07-1.65,6.26,6.26,0,0,0,1.69-4.68,6.07,6.07,0,0,0-1.69-4.54,7,7,0,0,0-5.07-1.65h-7.64Z"/><path class="cls-1" d="M611.42,323.25V373.8H599.11V323.25Z"/><path class="cls-1" d="M651.81,364.87H633l-3,8.93H617l18.29-50.55h14.26l18.29,50.55h-13Zm-3.17-9.51-6.26-18.5-6.19,18.5Z"/><rect class="cls-2" y="269.77" width="667.87" height="13.75" rx="6.88"/><path class="cls-1" d="M75.18,194.68a30.49,30.49,0,0,1-12.75,12.09q-8.61,4.59-21.35,4.6H25.36v37.36H0V144.64H41.08q12.45,0,21.05,4.3A29.61,29.61,0,0,1,75,160.8a34.43,34.43,0,0,1,4.3,17.35A33.48,33.48,0,0,1,75.18,194.68ZM50,187.79q3.56-3.4,3.56-9.64T50,168.51q-3.55-3.4-10.82-3.41H25.36v26.1H39.15Q46.41,191.2,50,187.79Z"/><path class="cls-1" d="M114.84,243a51,51,0,0,1-19.42-19,56.07,56.07,0,0,1,0-54.94,51.06,51.06,0,0,1,19.42-19,56.52,56.52,0,0,1,53.83,0A50,50,0,0,1,188,169a56.83,56.83,0,0,1-.08,54.94,50.64,50.64,0,0,1-19.27,19,56.38,56.38,0,0,1-53.76,0Zm46.86-24.61q7.49-8.31,7.49-22t-7.49-22q-7.48-8.24-19.94-8.23-12.62,0-20.09,8.16t-7.49,22.09q0,13.79,7.49,22t20.09,8.23Q154.21,226.64,161.7,218.34Z"/><path class="cls-1" d="M284.26,194.68a30.49,30.49,0,0,1-12.75,12.09q-8.61,4.59-21.36,4.6H234.44v37.36H209.08V144.64h41.07q12.46,0,21.06,4.3a29.61,29.61,0,0,1,12.9,11.86,34.43,34.43,0,0,1,4.3,17.35A33.59,33.59,0,0,1,284.26,194.68Zm-25.21-6.89q3.56-3.4,3.56-9.64t-3.56-9.64q-3.56-3.4-10.82-3.41H234.44v26.1h13.79Q255.49,191.2,259.05,187.79Z"/><path class="cls-1" d="M326.52,144.64v62.28q0,9.33,4.6,14.38t13.49,5q8.89,0,13.64-5T363,206.92V144.64h25.35v62.13q0,13.93-5.93,23.58a38,38,0,0,1-15.94,14.53,50.14,50.14,0,0,1-22.31,4.89,48.76,48.76,0,0,1-22-4.82,35.88,35.88,0,0,1-15.35-14.53q-5.64-9.71-5.64-23.65V144.64Z"/><path class="cls-1" d="M431.5,229.16h33.22v19.57H406.15V144.64H431.5Z"/><path class="cls-1" d="M541.68,230.35H502.83l-6.23,18.38H470.05l37.67-104.09h29.36l37.66,104.09H547.9Zm-6.53-19.58-12.9-38.11L509.5,210.77Z"/><path class="cls-1" d="M639.25,248.73,617.6,209.44h-6.08v39.29H586.16V144.64h42.56q12.3,0,21,4.3a29.7,29.7,0,0,1,13,11.79,33,33,0,0,1,4.3,16.68,31,31,0,0,1-5.86,18.53q-5.86,8.16-17.28,11.57l24,41.22ZM611.52,191.5h15.72q7,0,10.45-3.42t3.48-9.63q0-5.94-3.48-9.35t-10.45-3.41H611.52Z"/><path class="cls-1" d="M21,113A34.7,34.7,0,0,1,5.94,101.56,31.26,31.26,0,0,1,0,83.35H28.1q.62,6,4.17,9.18a13.38,13.38,0,0,0,9.26,3.17q5.86,0,9.26-2.71a9,9,0,0,0,3.4-7.48,8.86,8.86,0,0,0-2.7-6.64,21.79,21.79,0,0,0-6.64-4.32,105.7,105.7,0,0,0-11.19-3.86A122.78,122.78,0,0,1,16.52,64.2,31.62,31.62,0,0,1,5.09,54.63Q.3,48.3.31,38.11q0-15.13,11-23.7T39.83,5.84q17.91,0,28.87,8.57T80.44,38.27H51.87A11.13,11.13,0,0,0,48,30a13.55,13.55,0,0,0-9.1-3,11.32,11.32,0,0,0-7.72,2.54q-2.94,2.55-2.94,7.34,0,5.25,4.94,8.18t15.44,6.33a143.17,143.17,0,0,1,17.06,6.79A32.48,32.48,0,0,1,77,67.6q4.78,6.18,4.78,15.9a31.26,31.26,0,0,1-4.7,16.83,33,33,0,0,1-13.67,12q-9,4.48-21.15,4.48A55.73,55.73,0,0,1,21,113Z"/><path class="cls-1" d="M274.65,115.77,252.11,74.85h-6.33v40.92h-26.4V7.39h44.31q12.81,0,21.84,4.47A30.8,30.8,0,0,1,299,24.14a34.21,34.21,0,0,1,4.48,17.37,32.24,32.24,0,0,1-6.1,19.3q-6.1,8.49-18,12l25,42.92Zm-28.87-59.6h16.37q7.25,0,10.88-3.55t3.63-10q0-6.18-3.63-9.73t-10.88-3.55H245.78Z"/><path class="cls-1" d="M375.31,115.77,352.77,74.85h-6.33v40.92H320V7.39h44.31q12.81,0,21.84,4.47A30.91,30.91,0,0,1,399.7,24.14a34.31,34.31,0,0,1,4.48,17.37,32.31,32.31,0,0,1-6.1,19.3q-6.1,8.49-18,12l25,42.92Zm-28.87-59.6H362.8q7.26,0,10.89-3.55t3.62-10q0-6.18-3.62-9.73T362.8,29.31H346.44Z"/><path class="cls-1" d="M447.1,7.39V115.77H420.7V7.39Z"/><path class="cls-1" d="M484.15,113a34.61,34.61,0,0,1-15-11.43,31.2,31.2,0,0,1-6-18.21h28.1q.62,6,4.17,9.18a13.38,13.38,0,0,0,9.26,3.17q5.86,0,9.26-2.71a9,9,0,0,0,3.4-7.48,8.86,8.86,0,0,0-2.7-6.64A21.67,21.67,0,0,0,508,74.55a104.89,104.89,0,0,0-11.19-3.86,123.27,123.27,0,0,1-17.14-6.49,31.59,31.59,0,0,1-11.42-9.57q-4.8-6.33-4.79-16.52,0-15.13,11-23.7T503,5.84q17.91,0,28.87,8.57t11.74,23.86H515A11.2,11.2,0,0,0,511.17,30a13.6,13.6,0,0,0-9.11-3,11.33,11.33,0,0,0-7.72,2.54q-2.94,2.55-2.94,7.34,0,5.25,4.94,8.18t15.44,6.33a143.17,143.17,0,0,1,17.06,6.79,32.39,32.39,0,0,1,11.35,9.42Q545,73.78,545,83.5a31.19,31.19,0,0,1-4.71,16.83,33,33,0,0,1-13.67,12q-9,4.48-21.15,4.48A55.81,55.81,0,0,1,484.15,113Z"/><path class="cls-1" d="M584.42,109.75A53.12,53.12,0,0,1,564.2,89.91a55.37,55.37,0,0,1-7.49-28.64,55,55,0,0,1,7.49-28.56A53.2,53.2,0,0,1,584.42,13a58.77,58.77,0,0,1,56,0,52.12,52.12,0,0,1,20.07,19.76,55.92,55.92,0,0,1,7.34,28.56,55.81,55.81,0,0,1-7.42,28.64,52.74,52.74,0,0,1-20.07,19.84,58.68,58.68,0,0,1-56,0Zm48.79-25.63Q641,75.46,641,61.27q0-14.35-7.79-22.93t-20.77-8.57q-13.12,0-20.92,8.5t-7.8,23q0,14.35,7.8,22.92t20.92,8.57Q625.42,92.76,633.21,84.12Z"/><g id="Logo"><path class="cls-3" d="M116.28,13.83c9.6-2.31,19.9,4,30.31,3.47,14.93-.78,18.18-15.07,29.55-12.51C190,9.75,192.52,21.36,192.27,31c-.21,7.87-2.67,9.33-4.86,19.45-.92,4.26-1.26,9.77-1.92,20.8-1.35,18.54.32,24.27-6.79,37.7-3.28,5-8.81,11.25-11.16,10.1-2.62.58,5.36-34.87-3.62-44-4-7.43-15.39-10.13-22.16-3.46-2.33,2.22-3.06,5.1-4.52,10.85-2,8-3.15,12.42-2.11,18.09.75,4,2.33,7.35,1.21,12.37-.37,1.64-.76,3.25-2,3.76-2.83,1.21-8.55-4.25-11.61-10-5.57-13.76-1.3-20-8.15-39.8-4.46-13.31-9-14.25-11.75-27.14C99.71,25.84,105,17.16,116.28,13.83Z"/><path class="cls-1" d="M136.11,16.24c-1.82-2.21-15.68-6.57-19.6-5.62-13,2.06-19.29,12.24-18.39,24.77-.41,11.43,7.37,19.09,12.26,30.36,6.62,18.21,1.94,40.14,21.91,53,12.27,7.59,3.59-23,7.34-35.07,1.63-10.53,13.67-19.38,21.21-7.64,5.18,9,4.32,22.68,3.51,36.68-.31,7.91-.15,9.71,1,10.36,4.72,1.21,11.43-7.15,13.47-10.46,9.15-14.16,8.66-26.91,8.35-40.5-.28-2.6-.8-20-1-19.57-2.8,7.89-.95,37.28-6.84,47.41-2.87,7-6,11-8.75,11.46-2.81-1.56,3.34-27.37-4.62-37.69-3.38-7.33-12.91-10.06-20.42-7.29C131.9,72.76,131.67,85.48,132,93.91c0,2.63,2.9,17.23.43,19.78-1.53.59-4.55-3.56-6-6-5.37-7.72-4.77-26.91-6.23-37.19-4.34-13.88-16-27.5-13.12-41.16C111.76,13,120.94,16.49,136.11,16.24Z"/><path class="cls-2" d="M171.68.67C160.22,3,151.9,12.14,139.88,14.21c-6.44,1.22-10.25-.36-10.59.72,3.9,7.62,23.81,6.81,29.51,3.95,3.81-1.83,11.19-7,14.23-7.92,4.55-1.1,8.95,2.37,10,3.17,8,6.81,7.33,17.83,4.41,27.52-1.36,4.94-4,13.39-4,18-.09,5.12,1.32,10.22,2.19,10.18,1.23-.06,1-10.74,3.74-18.29,2.93-8.12,1.69-4.71,3.65-10.2,1.45-4.34,3.8-12.15,3.79-15.81C198.62,14.77,188.81-3.75,171.68.67Z"/><path class="cls-4" d="M113.89,41.56a18.8,18.8,0,0,1,2.78-5.14c1.68-2.28,3.89-4.13,4.73-4.06s1,1.33,1.13,1.65c.32,1.13-3.2,1.18-3.15,2.73,0,1,.78,1.84,2.66,3.58a32.84,32.84,0,0,0,5.84,4.44,48.92,48.92,0,0,0,22.77,7.84,80.36,80.36,0,0,0,11.3-.2c.78,0,3-.44,5.68-.95a36.16,36.16,0,0,0,6.1-1.84c1.38-.59,3.43-1.82,4.09-1.66.33.07.93.72,1.19,2.59.47,3.43-.67,8.68-1,8.72s-.77-2.37-.72-4.93c0-.95.47-3.09-.44-3.26-.76-.14-5.25,1.71-5.86,1.83a4.25,4.25,0,0,0-2.65,1.74c-1.56,2.26-6,6.93-4.76,12.1.24,1,2.81-1,3-.62.4.65-1.53,2.28-4.15,3.32-11.56,4.57-34.72-1.16-42.46-19a27.36,27.36,0,0,1-1.69-7.87c0-2.22,0-4,0-5.05,0-.88-2.8,2.69-2.89,2.79C114.8,41,114,41.63,113.89,41.56Z"/><path class="cls-3" d="M121,47.85c.36-.09,1-.29,1.5-.46a.37.37,0,0,0,.29-.32c0-1-.17-4,0-4,.64-.22,7.88,6.43,18.7,9.9,9.85,3.17,25.08.64,25.27,1s-2.34,2-4.07,5.68a17.07,17.07,0,0,0-1,6.33c0,1.08-.18,2.07-1.18,2.41C155.32,70.06,144,68,143,67.74a37.64,37.64,0,0,1-16.86-10.41C122.32,53,120.3,48,121,47.85Z"/></g></g></g></svg>